<svg width="80" height="80" fill="none" xmlns="http://www.w3.org/2000/svg"><mask id="b" fill="#fff"><path d="M8.75 54.698c0-.345.28-.625.625-.625h11.57c.346 0 .626.28.626.625v19.678c0 .345-.28.625-.625.625H9.375a.625.625 0 0 1-.625-.625V54.698ZM24.776 43.429c0-.345.28-.625.625-.625h11.57c.346 0 .625.28.625.625v30.947c0 .345-.28.625-.625.625h-11.57a.625.625 0 0 1-.625-.625V43.429ZM42.404 32.16c0-.345.28-.625.625-.625h11.57c.346 0 .626.28.626.625v42.216c0 .345-.28.625-.626.625H43.03a.625.625 0 0 1-.625-.625V32.16ZM58.43 22.5c0-.344.28-.624.625-.624h11.57c.345 0 .625.28.625.625v51.875c0 .345-.28.625-.625.625h-11.57a.625.625 0 0 1-.625-.625V22.5Z"/></mask><path d="M9.375 56.073h11.57v-4H9.376v4Zm10.196-1.375v19.678h4V54.698h-4ZM20.946 73H9.375v4h11.57v-4ZM10.75 74.376V54.698h-4v19.678h4ZM25.4 44.804h11.571v-4h-11.57v4Zm10.196-1.375v30.947h4V43.429h-4ZM36.971 73h-11.57v4h11.57v-4Zm-10.195 1.375V43.429h-4v30.947h4Zm16.253-40.841h11.57v-4H43.03v4Zm10.195-1.375v42.216h4V32.16h-4ZM54.6 73H43.029v4h11.57v-4Zm-10.196 1.376V32.16h-4v42.216h4Zm14.65-50.5h11.571v-4h-11.57v4ZM69.25 22.5v51.875h4V22.5h-4ZM70.625 73h-11.57v4h11.57v-4ZM60.43 74.376V22.5h-4v51.875h4ZM59.055 73c.76 0 1.375.615 1.375 1.375h-4A2.625 2.625 0 0 0 59.055 77v-4Zm10.195 1.375c0-.76.616-1.375 1.375-1.375v4a2.625 2.625 0 0 0 2.625-2.625h-4Zm1.375-50.5c-.76 0-1.375-.616-1.375-1.375h4a2.625 2.625 0 0 0-2.625-2.625v4Zm-11.57-4A2.625 2.625 0 0 0 56.43 22.5h4c0 .76-.616 1.375-1.375 1.375v-4ZM43.029 73c.76 0 1.375.615 1.375 1.375h-4A2.625 2.625 0 0 0 43.029 77v-4Zm10.195 1.375c0-.76.616-1.375 1.376-1.375v4a2.625 2.625 0 0 0 2.624-2.625h-4ZM54.6 33.535c-.76 0-1.376-.616-1.376-1.375h4a2.625 2.625 0 0 0-2.624-2.625v4Zm-11.571-4a2.625 2.625 0 0 0-2.625 2.625h4c0 .76-.616 1.375-1.375 1.375v-4ZM25.401 73c.76 0 1.375.615 1.375 1.375h-4A2.625 2.625 0 0 0 25.4 77v-4Zm10.195 1.375c0-.76.616-1.375 1.375-1.375v4a2.625 2.625 0 0 0 2.625-2.625h-4Zm1.375-29.572c-.76 0-1.375-.616-1.375-1.375h4a2.625 2.625 0 0 0-2.625-2.625v4Zm-11.57-4a2.625 2.625 0 0 0-2.625 2.625h4c0 .76-.616 1.375-1.375 1.375v-4ZM9.375 73c.76 0 1.375.615 1.375 1.375h-4A2.625 2.625 0 0 0 9.375 77v-4Zm10.196 1.375c0-.76.615-1.375 1.375-1.375v4a2.625 2.625 0 0 0 2.625-2.625h-4Zm1.375-18.303c-.76 0-1.375-.616-1.375-1.375h4a2.625 2.625 0 0 0-2.625-2.625v4Zm-11.571-4a2.625 2.625 0 0 0-2.625 2.625h4c0 .76-.616 1.375-1.375 1.375v-4Z" fill="url(#a)" mask="url(#b)"/><path d="m9.375 39.376 52.5-31.977m0 0-.807 6.395m.807-6.395-6.461-2.398" stroke="url(#c)" stroke-width="2" stroke-linecap="round" stroke-linejoin="round"/><defs><linearGradient id="a" x1="8.75" y1="29.346" x2="62.483" y2="83.672" gradientUnits="userSpaceOnUse"><stop stop-color="#1E74EC"/><stop offset="1" stop-color="#002984"/></linearGradient><linearGradient id="c" x1="9.375" y1="9.835" x2="42.898" y2="53.834" gradientUnits="userSpaceOnUse"><stop stop-color="#1E74EC"/><stop offset="1" stop-color="#002984"/></linearGradient></defs></svg>