<svg width="80" height="80" fill="none" xmlns="http://www.w3.org/2000/svg"><path d="M6 60.451v-.944a.944.944 0 0 0-.821 1.41L6 60.45Zm68 0 .822.466a.944.944 0 0 0-.822-1.41v.944Zm-2.956 5.216v.944c.34 0 .654-.183.821-.479l-.821-.465Zm-62.087 0-.822.465a.944.944 0 0 0 .822.48v-.945Zm.534-8.942a.944.944 0 0 0 1.889 0H9.49ZM10.435 15v-.944a.944.944 0 0 0-.944.944h.944Zm57.652 0h.945a.944.944 0 0 0-.945-.944V15Zm-.944 41.725a.944.944 0 0 0 1.889 0h-1.89ZM6 61.395h68v-1.889H6v1.89Zm67.179-1.41-2.957 5.216 1.643.931 2.957-5.215-1.643-.932Zm-2.135 4.737H8.957v1.89h62.087v-1.89Zm-61.266.479-2.956-5.216-1.643.932 2.956 5.215 1.643-.931Zm6.57-44.786h45.826v-1.889H16.348v1.889Zm46.36.546v34.274h1.889V20.961h-1.889Zm-.534 34.82H16.348v1.889h45.826V55.78Zm-46.36-.546V20.961h-1.889v34.274h1.89Zm.534.546a.54.54 0 0 1-.534-.546h-1.889a2.429 2.429 0 0 0 2.423 2.435V55.78Zm46.36-.546a.54.54 0 0 1-.534.546v1.889a2.429 2.429 0 0 0 2.423-2.435h-1.889Zm-.534-34.82a.54.54 0 0 1 .534.546h1.889a2.429 2.429 0 0 0-2.423-2.435v1.889Zm-45.826-1.889a2.429 2.429 0 0 0-2.423 2.435h1.89a.54.54 0 0 1 .533-.546v-1.889Zm-4.968 38.2V15H9.49v41.725h1.89Zm-.945-40.782h57.652v-1.888H10.435v1.888ZM67.143 15v41.725h1.889V15h-1.89Z" fill="url(#a)"/><defs><linearGradient id="a" x1="6" y1="22.125" x2="56.733" y2="80.638" gradientUnits="userSpaceOnUse"><stop stop-color="#1E74EC"/><stop offset="1" stop-color="#002984"/></linearGradient></defs></svg>