<svg width="80" height="80" fill="none" xmlns="http://www.w3.org/2000/svg"><path d="m57.667 58.57.7.715-.7-.714ZM45.8 68.786a1 1 0 0 0 1.4 1.43l-1.4-1.43ZM40 59a1 1 0 1 0 0-2v2Zm-6.514-15.164a1 1 0 0 0-1.972.328l1.973-.328Zm15 .328a1 1 0 0 0-1.972-.328l1.972.328ZM10 17h61v-2H10v2Zm62 1v38h2V18h-2ZM9 56V18H7v38h2Zm62 1H59.066v2H71v-2Zm-14.032.856L45.8 68.786l1.4 1.429 11.166-10.93-1.398-1.429ZM40 57H10v2h30v-2ZM7 56a3 3 0 0 0 3 3v-2a1 1 0 0 1-1-1H7Zm65 0a1 1 0 0 1-1 1v2a3 3 0 0 0 3-3h-2Zm-1-39a1 1 0 0 1 1 1h2a3 3 0 0 0-3-3v2ZM59.066 57a3 3 0 0 0-2.099.856l1.4 1.43a1 1 0 0 1 .699-.286v-2ZM10 15a3 3 0 0 0-3 3h2a1 1 0 0 1 1-1v-2Zm25 18a4 4 0 0 1-4 4v2a6 6 0 0 0 6-6h-2Zm-4 4a4 4 0 0 1-4-4h-2a6 6 0 0 0 6 6v-2Zm-4-4a4 4 0 0 1 4-4v-2a6 6 0 0 0-6 6h2Zm4-4a4 4 0 0 1 4 4h2a6 6 0 0 0-6-6v2Zm22 4a4 4 0 0 1-4 4v2a6 6 0 0 0 6-6h-2Zm-4 4a4 4 0 0 1-4-4h-2a6 6 0 0 0 6 6v-2Zm-4-4a4 4 0 0 1 4-4v-2a6 6 0 0 0-6 6h2Zm4-4a4 4 0 0 1 4 4h2a6 6 0 0 0-6-6v2ZM32.5 44c-.986.164-.986.165-.986.166v.005l.002.009a1.334 1.334 0 0 0 .017.083 4.416 4.416 0 0 0 .266.773 5.562 5.562 0 0 0 1.188 1.678C34.23 47.932 36.376 49 40 49v-2c-3.21 0-4.815-.932-5.613-1.714-.41-.401-.64-.794-.765-1.072a2.402 2.402 0 0 1-.138-.393v.005l.002.004v.005L32.5 44Zm7.5 5c3.624 0 5.77-1.068 7.013-2.286.612-.599.975-1.206 1.188-1.678a4.416 4.416 0 0 0 .266-.773 2.433 2.433 0 0 0 .017-.083l.001-.009v-.004l.001-.001c0-.001 0-.002-.986-.166s-.986-.165-.986-.166v-.004l.001-.004.001-.005-.001.006a2.402 2.402 0 0 1-.137.387 3.563 3.563 0 0 1-.765 1.072C44.815 46.068 43.211 47 40 47v2Z" fill="url(#a)"/><defs><linearGradient id="a" x1="8" y1="23.523" x2="62.065" y2="79.973" gradientUnits="userSpaceOnUse"><stop stop-color="#1E74EC"/><stop offset="1" stop-color="#002984"/></linearGradient></defs></svg>