<svg width="80" height="80" fill="none" xmlns="http://www.w3.org/2000/svg"><mask id="a" fill="#fff"><path d="M60 70H20V10h20l20 21.198V70Z"/></mask><path d="M40 31.198h-1a1 1 0 0 0 1 1v-1ZM39 10v21.198h2V10h-2Zm1 22.198h20v-2H40v2ZM60 70v2a2 2 0 0 0 2-2h-2Zm-40 0h-2a2 2 0 0 0 2 2v-2Zm0-60V8a2 2 0 0 0-2 2h2Zm20 0 1.455-1.373A2 2 0 0 0 40 8v2Zm20 21.198h2a2 2 0 0 0-.545-1.373L60 31.198ZM60 68H20v4h40v-4Zm-38 2V10h-4v60h4Zm-2-58h20V8H20v4Zm38 19.198V70h4V31.198h-4Zm3.455-1.373-20-21.198-2.91 2.745 20 21.199 2.91-2.746Z" fill="#E6E8EF" mask="url(#a)"/><path d="M31 41a1 1 0 1 0 0 2v-2Zm22 2a1 1 0 1 0 0-2v2Zm-22 6a1 1 0 1 0 0 2v-2Zm22 2a1 1 0 1 0 0-2v2Zm-22 6a1 1 0 1 0 0 2v-2Zm22 2a1 1 0 1 0 0-2v2ZM31 43h22v-2H31v2Zm0 8h22v-2H31v2Zm0 8h22v-2H31v2Z" fill="#E6E8EF"/><circle cx="27" cy="42" r="1" fill="#E6E8EF"/><circle cx="27" cy="50" r="1" fill="#E6E8EF"/><circle cx="27" cy="58" r="1" fill="#E6E8EF"/></svg>