<svg width="80" height="63" fill="none" xmlns="http://www.w3.org/2000/svg"><path fill-rule="evenodd" clip-rule="evenodd" d="M0 31.5V63h80V0H0v31.5ZM40.356 2.269l37.366.022v58.704H1.701l.011-29.312c.006-16.122.081-29.382.166-29.467.084-.085.37-.113.632-.062.264.051 17.294.103 37.846.115ZM15.84 17.076c-1.816.561-4.048 2.75-4.327 4.243-.757 4.06 1.26 6.242 7.56 8.18 4.74 1.458 6.591 3.164 6.129 5.644-.937 5.024-11.478 4.564-12.29-.536-.26-1.635-2.095-1.715-2.095-.091 0 6.476 12.295 8.549 15.88 2.678 2.408-3.944-.112-7.521-6.77-9.609-5.244-1.645-6.263-2.47-6.263-5.069 0-5.426 10.582-5.069 11.31.382.15 1.133.177 1.157 1.293 1.157h1.14l-.18-1.328c-.64-4.692-5.954-7.33-11.387-5.65Zm15.476 11.56v11.741h1.906l.194-3.88c.106-2.134.118-4.003.026-4.152-.094-.154.306-.272.92-.272 1.057 0 1.188.122 4.454 4.152l3.366 4.152h1.257c1.667 0 1.76.194-2.317-4.833-1.964-2.422-3.532-4.567-3.486-4.767.047-.2 1.527-1.984 3.288-3.966 3.72-4.186 3.588-3.902 1.815-3.902H41.35l-3.095 3.57c-2.539 2.928-3.237 3.572-3.879 3.58l-.783.01V16.894h-2.277v11.741Zm-19.36 17.837c-1.531.776-1.05 2.46.868 3.038 1.023.308 1.15.44 1.071 1.12-.093.813-1.351 1.059-2.58.505-.737-.333-.62.324.131.728 1.446.778 3.357.013 3.357-1.345 0-.832-.7-1.534-1.736-1.743-1.986-.4-1.828-1.968.176-1.741 1.42.16 1.653-.093.55-.598-.894-.41-.957-.409-1.837.036Zm10.258.26c-3.145 2.136-.527 6.654 2.936 5.067 1.133-.52 1.702-2.045 1.303-3.497a2.758 2.758 0 0 0-4.239-1.57Zm16.721-.18c-2.708 1.478-1.72 5.565 1.344 5.565 2.929 0 3.994-3.914 1.484-5.453-1.078-.661-1.771-.689-2.828-.112Zm11.69.042c-2.078 1.297-1.788 4.447.499 5.407 3.194 1.343 5.524-3.47 2.57-5.307-1.142-.709-2.045-.739-3.068-.1Zm-34.398 2.66c0 1.718.114 2.863.284 2.863.157 0 .285-.5.285-1.11 0-1.904.666-2.036 1.763-.348.518.796 1.102 1.45 1.298 1.453.534.008.448-.227-.64-1.751-1.203-1.683-1.195-1.49-.12-2.856 1.237-1.57.483-1.39-1.028.245l-1.257 1.36-.008-1.36c-.004-.748-.136-1.36-.293-1.36-.17 0-.284 1.145-.284 2.864Zm11.672 0v2.863h1.85c2.208 0 2.494-.506.357-.63l-1.495-.086-.082-2.505c-.114-3.48-.63-3.188-.63.358Zm4.84 0c0 1.718.114 2.863.285 2.863.157 0 .285-.5.285-1.11 0-1.79.625-2 1.676-.56.488.665.886 1.314.886 1.44 0 .127.26.23.578.23.511 0 .444-.18-.569-1.53-1.376-1.833-1.372-1.788-.273-3.13 1.25-1.526.555-1.32-.99.293l-1.302 1.36-.003-1.36c-.002-.748-.132-1.36-.288-1.36-.17 0-.285 1.145-.285 2.864Zm11.411-1.382c.331.838.817 2.104 1.08 2.811.763 2.05 1.21 1.824 2.403-1.21 1.178-2.992 1.198-3.083.672-3.083-.217 0-.718.983-1.175 2.303-.914 2.64-.891 2.641-1.877-.1-.472-1.313-.916-2.094-1.223-2.153-.432-.085-.42.06.12 1.432Zm-18.99-.541c.891.656.938 2.615.082 3.476-1.503 1.512-3.606.575-3.606-1.608 0-1.88 2.038-2.961 3.523-1.868Zm16.291-.15c1.672 1.123.843 4.363-1.116 4.363-1.894 0-2.964-2.654-1.617-4.009.57-.572 2.11-.772 2.733-.353Zm12.071.354c1.92 1.932-.783 5.252-2.757 3.387-1.42-1.342-.54-3.96 1.334-3.96.474 0 1.107.255 1.423.573Z" fill="#fff"/></svg>