<svg width="129" height="128" fill="none" xmlns="http://www.w3.org/2000/svg"><path d="m71.641 64.635-.645.763a1 1 0 0 0 1.348-.051l-.703-.712ZM85.864 50.61l.702.712a1 1 0 0 0 .298-.712h-1Zm0-5.737-.29-.957a1 1 0 0 0-.71.957h1Zm8.404-2.55.702-.712a1 1 0 0 0-.993-.244l.29.957Zm3.232 3.188.955.298a1 1 0 0 0-.253-1.01l-.702.712Zm-2.586 8.286v1a1 1 0 0 0 .955-.702l-.955-.298Zm-6.465 0v-1a1 1 0 0 0-.718.305l.719.695ZM74.874 67.822l-.719-.696a1 1 0 0 0 .017 1.408l.702-.712Zm3.879 3.824.71.705a1 1 0 0 0-.008-1.417l-.703.712Zm-29.738 29.959.34.941a.998.998 0 0 0 .37-.236l-.71-.705Zm-6.465.638-.332.943.332-.943Zm-5.818-5.737-.947.32.947-.32Zm0-5.737-.702-.712a1 1 0 0 0-.279.517l.981.195ZM67.116 60.81l.646-.764a1 1 0 0 0-1.348.052l.702.712Zm-25.212-4.462-.673.74a1 1 0 0 0 .673.26v-1Zm9.697 0v1a1 1 0 0 0 1-1h-1Zm0-8.924h1a1 1 0 0 0-.245-.656l-.755.656ZM43.843 38.5v-1a1 1 0 0 0-.754 1.656l.754-.656Zm9.697 0 .502-.865a1 1 0 0 0-.502-.135v1Zm10.99 10.199.922-.388-.922.388Zm0 11.474-.973-.232a1 1 0 0 0 .424 1.067l.55-.836Zm1.94 1.274.702.712a1 1 0 0 0-.153-1.547l-.55.835Zm-9.697 9.562-.702.712a1 1 0 0 0 1.404 0l-.702-.712Zm-2.586-2.55.702-.712a1 1 0 0 0-.868-.274l.166.986Zm-9.05 0-.27.963.27-.963ZM33.5 56.348h-1a1 1 0 0 0 .11.455l.89-.455Zm0-7.65.673-.739a1 1 0 0 0-1.673.74h1Zm34.91 33.785-.726-.69a1 1 0 0 0 .023 1.402l.702-.712Zm17.454 17.21-.703.712c.12.117.265.202.425.249l.278-.96Zm9.697-.637.71.704-.71-.704Zm1.292-8.287.986-.17a1 1 0 0 0-.283-.542l-.703.712ZM78.106 72.284l.702-.712a1 1 0 0 0-1.427.023l.725.689ZM41.848 91.332a1 1 0 1 0 1.405 1.424l-1.405-1.424Zm24.677-21.523a1 1 0 1 0-1.404-1.424l1.404 1.424ZM46.374 95.794a1 1 0 1 0 1.404 1.424l-1.404-1.424ZM71.05 74.27a1 1 0 0 0-1.405-1.424l1.405 1.424Zm1.293-8.924 14.222-14.024-1.404-1.424-14.223 14.023 1.405 1.425Zm14.52-14.736v-5.737h-2v5.737h2Zm-.71-4.78 8.404-2.55-.58-1.913-8.405 2.55.581 1.913Zm7.412-2.794 3.232 3.187 1.404-1.424-3.232-3.188-1.404 1.425Zm2.98 2.177L93.958 53.5l1.91.596 2.586-8.286-1.91-.596Zm-1.632 7.584H88.45v2h6.465v-2Zm-7.183.305L74.155 67.126l1.437 1.391 13.576-14.023-1.437-1.391Zm-13.56 15.43 3.88 3.825 1.404-1.424-3.88-3.824-1.403 1.424Zm3.872 2.409L48.305 100.9l1.42 1.409 29.737-29.96-1.42-1.408Zm-29.028 30.663-.339-.94v-.001.001l-.007.002-.028.01-.122.041a17.749 17.749 0 0 1-2.041.539c-1.3.261-2.682.364-3.595.043l-.665 1.886c1.464.516 3.316.3 4.653.033a19.915 19.915 0 0 0 2.426-.653l.04-.014.012-.004.003-.001.002-.001-.339-.941Zm-6.132-.305c-1.417-.499-2.479-1.117-3.297-1.914-.815-.795-1.439-1.817-1.906-3.2l-1.895.64c.548 1.622 1.321 2.936 2.405 3.992 1.08 1.053 2.419 1.801 4.028 2.368l.665-1.886Zm-5.203-5.114c-.29-.86-.308-2.12-.22-3.269a19.531 19.531 0 0 1 .247-1.921l.005-.026.001-.005v-.001l-.98-.195-.981-.195v.002l-.001.003-.002.01-.007.036-.024.129a21.566 21.566 0 0 0-.252 2.01c-.092 1.188-.11 2.796.319 4.062l1.895-.64Zm-.246-4.705 30.384-29.959-1.404-1.424L36.03 90.057l1.404 1.424Zm29.037-29.907 4.525 3.824 1.29-1.527-4.524-3.825-1.291 1.528Zm-24.567-4.226h9.697v-2h-9.697v2Zm10.697-1v-8.924h-2v8.924h2Zm-.245-9.58-7.758-8.924-1.51 1.312 7.758 8.924 1.51-1.312ZM43.843 39.5h9.697v-2h-9.697v2Zm9.697-1-.501.865.004.003.017.01.07.04.274.166a48.705 48.705 0 0 1 4.22 2.908c2.478 1.915 5.03 4.327 5.985 6.595l1.843-.776c-1.177-2.795-4.12-5.482-6.605-7.402a50.658 50.658 0 0 0-4.696-3.21l-.08-.047a2.457 2.457 0 0 0-.02-.012l-.006-.004h-.002c0-.001-.001-.001-.503.864ZM63.61 49.087c.768 1.825.795 4.478.579 6.808a34.17 34.17 0 0 1-.565 3.747c-.02.1-.038.176-.05.227l-.012.057-.003.013v.002l.972.231.973.231V60.4l.002-.005.005-.019.015-.068.055-.252a36.193 36.193 0 0 0 .6-3.977c.22-2.372.246-5.456-.728-7.77l-1.843.777Zm.372 11.921 1.94 1.275 1.098-1.671-1.94-1.275-1.098 1.671Zm1.787-.273-9.697 9.562 1.404 1.424 9.697-9.562-1.404-1.424Zm-8.293 9.562-2.586-2.55-1.404 1.424 2.586 2.55 1.404-1.424Zm-3.288-1.838-.166-.986h-.002l-.01.002-.044.007a22.892 22.892 0 0 1-.84.119c-.568.072-1.36.16-2.253.217-1.82.118-3.939.106-5.466-.322l-.54 1.926c1.874.524 4.28.512 6.135.392a38.852 38.852 0 0 0 3.28-.357l.052-.008a1.31 1.31 0 0 0 .014-.003h.005l-.165-.987Zm-8.781-.963c-2.832-.793-5.57-3.57-7.673-6.362a41.39 41.39 0 0 1-3.288-5.137l-.042-.08-.01-.02-.002-.004-.891.455-.89.456.001.002.004.008.013.025.049.093a39.1 39.1 0 0 0 .889 1.57 43.382 43.382 0 0 0 2.57 3.836c2.125 2.82 5.207 6.098 8.73 7.084l.54-1.926ZM34.5 56.348v-7.65h-2v7.65h2Zm-1.673-6.91 8.404 7.65 1.346-1.48-8.404-7.649-1.346 1.48Zm34.88 33.757 17.455 17.21 1.404-1.424-17.455-17.21-1.404 1.424Zm18.157 16.498-.278.961h.001l.002.001.005.001.02.005.066.019a21.515 21.515 0 0 0 1.118.268c.728.155 1.735.334 2.835.425 1.094.092 2.318.1 3.468-.106 1.143-.204 2.306-.637 3.17-1.507l-1.42-1.41c-.464.468-1.178.783-2.102.949-.917.164-1.951.165-2.95.081a21.162 21.162 0 0 1-3.658-.648l-.277.961Zm10.406.067c.752-.756 1.186-1.754 1.44-2.735.257-.988.351-2.035.368-2.971a20.585 20.585 0 0 0-.238-3.448V90.6l-.001-.001-.986.17-.985.17v.002l.002.009a5.628 5.628 0 0 1 .033.22 18.592 18.592 0 0 1 .175 2.848c-.015.842-.1 1.72-.303 2.505-.206.792-.514 1.415-.924 1.828l1.42 1.41Zm1.286-9.703L78.808 71.572l-1.404 1.424L96.15 91.48l1.405-1.424ZM77.38 71.595l-9.697 10.198 1.45 1.379 9.697-10.2-1.45-1.377ZM43.253 92.756l23.272-22.947-1.404-1.424-23.273 22.947 1.405 1.424Zm4.525 4.462L71.05 74.271l-1.405-1.424-23.272 22.947 1.404 1.424Z" fill="url(#a)"/><defs><linearGradient id="a" x1="33.5" y1="47.5" x2="97.5" y2="102.5" gradientUnits="userSpaceOnUse"><stop stop-color="#1E74EC"/><stop offset="1" stop-color="#002984"/></linearGradient></defs></svg>