<svg width="129" height="128" fill="none" xmlns="http://www.w3.org/2000/svg"><path d="M49.43 47.93a1 1 0 1 0 2 0h-2Zm2 10.419a1 1 0 0 0-2 0h2Zm-2 9.767a1 1 0 1 0 2 0h-2Zm2 10.419a1 1 0 1 0-2 0h2Zm-1-38.116a1 1 0 0 0 0 2v-2Zm39.07 2a1 1 0 1 0 0-2v2ZM50.43 82.093a1 1 0 0 0 0 2v-2Zm39.07 2a1 1 0 1 0 0-2v2Zm-25.047 3.512a1 1 0 1 0 0 2v-2Zm11.023 2a1 1 0 0 0 0-2v2ZM64.453 45.93a1 1 0 1 0 0 2v-2Zm18.837 2a1 1 0 1 0 0-2v2Zm-8.418 3.21a1 1 0 1 0 0 2v-2Zm8.418 2a1 1 0 1 0 0-2v2ZM51.43 32H88.5v-2H51.43v2Zm37.07 0v63.116h2V32h-2Zm0 63.116H51.43v2H88.5v-2ZM51.43 47.93V32h-2v15.93h2Zm0 47.186V78.535h-2v16.581h2Zm0 0h-2a2 2 0 0 0 2 2v-2Zm37.07 0v2a2 2 0 0 0 2-2h-2ZM88.5 32h2a2 2 0 0 0-2-2v2Zm-37.07-2a2 2 0 0 0-2 2h2v-2Zm-1 12.419H89.5v-2H50.43v2Zm0 41.674H89.5v-2H50.43v2Zm14.023 5.512h11.023v-2H64.453v2Zm0-41.675H83.29v-2H64.453v2Zm10.419 5.21h8.418v-2h-8.418v2ZM51.43 68.115V58.35h-2v9.767h2Z" fill="url(#a)"/><mask id="c" fill="#fff"><path fill-rule="evenodd" clip-rule="evenodd" d="M46.745 48.122a1 1 0 0 1 1-1h5.472a1 1 0 0 1 1 1v2.343a13.06 13.06 0 0 1 5.172 2.962l1.85-1.068a1 1 0 0 1 1.366.366l2.736 4.739a1 1 0 0 1-.366 1.366l-1.795 1.037c.247 1.003.378 2.053.378 3.133 0 1.101-.136 2.17-.393 3.192l1.81 1.045a1 1 0 0 1 .366 1.366l-2.736 4.74a1 1 0 0 1-1.366.365l-1.895-1.093a13.06 13.06 0 0 1-5.127 2.92v2.344a1 1 0 0 1-1 1h-5.472a1 1 0 0 1-1-1v-2.344a13.065 13.065 0 0 1-5.324-3.106l-2.216 1.28a1 1 0 0 1-1.366-.367l-2.736-4.739a1 1 0 0 1 .366-1.366l2.265-1.308A13.119 13.119 0 0 1 37.405 63c0-.986.11-1.946.316-2.87l-2.252-1.3a1 1 0 0 1-.366-1.366l2.736-4.74a1 1 0 0 1 1.366-.365l2.173 1.254a13.065 13.065 0 0 1 5.367-3.148v-2.343ZM50.5 68a5 5 0 1 0 0-10 5 5 0 0 0 0 10Z"/></mask><path d="M54.217 50.465h-2v1.492l1.43.425.57-1.917Zm5.172 2.962-1.363 1.464 1.083 1.007 1.28-.739-1-1.732Zm1.85-1.068-1-1.732 1 1.732Zm1.366.366-1.732 1 1.732-1Zm2.736 4.739 1.732-1-1.732 1Zm-.366 1.366-1-1.732 1 1.732Zm-1.795 1.037-1-1.733-1.301.752.359 1.458 1.942-.477Zm-.015 6.325-1.94-.486-.367 1.464 1.307.754 1-1.732Zm1.81 1.045-1 1.732 1-1.732Zm.366 1.366 1.732 1-1.732-1Zm-2.736 4.74-1.732-1 1.732 1Zm-1.366.365 1-1.732-1 1.732Zm-1.895-1.093 1-1.733-1.274-.735-1.081.997 1.355 1.47Zm-5.127 2.92-.57-1.917-1.43.425v1.492h2Zm-7.472 0h2v-1.492l-1.43-.425-.57 1.917Zm-5.324-3.106 1.386-1.442-1.084-1.042-1.302.752 1 1.732Zm-2.216 1.28 1 1.731-1-1.732Zm-1.366-.367-1.732 1 1.732-1Zm-2.736-4.739 1.732-1-1.732 1Zm.366-1.366 1 1.732-1-1.732Zm2.265-1.308 1 1.732 1.28-.738-.33-1.44-1.95.446Zm-.013-5.799 1.952.437.32-1.434-1.272-.735-1 1.732Zm-2.252-1.3 1-1.732-1 1.732Zm-.366-1.366 1.732 1-1.732-1Zm2.736-4.74 1.732 1-1.732-1Zm1.366-.365 1-1.732-1 1.732Zm2.173 1.254-1 1.732 1.308.755 1.084-1.051-1.392-1.436Zm5.367-3.148.57 1.917 1.43-.425v-1.492h-2Zm1-5.343a3 3 0 0 0-3 3h4a1 1 0 0 1-1 1v-4Zm5.472 0h-5.472v4h5.472v-4Zm3 3a3 3 0 0 0-3-3v4a1 1 0 0 1-1-1h4Zm0 2.343v-2.343h-4v2.343h4Zm4.535 1.498a15.06 15.06 0 0 0-5.964-3.415l-1.141 3.834a11.059 11.059 0 0 1 4.38 2.509l2.725-2.928Zm-.513-1.336-1.85 1.068 2 3.464 1.85-1.068-2-3.464Zm4.098 1.098a3 3 0 0 0-4.098-1.098l2 3.464a1 1 0 0 1-1.366-.366l3.464-2Zm2.736 4.739-2.736-4.74-3.464 2 2.736 4.74 3.464-2Zm-1.098 4.098a3 3 0 0 0 1.098-4.098l-3.464 2a1 1 0 0 1 .366-1.366l2 3.464Zm-1.795 1.037 1.795-1.037-2-3.464-1.795 1.036 2 3.465ZM65.558 63c0-1.242-.151-2.452-.436-3.611l-3.884.955c.209.849.32 1.738.32 2.656h4Zm-.453 3.679A15.1 15.1 0 0 0 65.558 63h-4c0 .936-.116 1.842-.333 2.706l3.88.973Zm.87-1.174-1.81-1.045-2 3.464 1.81 1.045 2-3.464Zm1.098 4.098a3 3 0 0 0-1.098-4.098l-2 3.464a1 1 0 0 1-.366-1.366l3.464 2Zm-2.736 4.74 2.736-4.74-3.464-2-2.736 4.74 3.464 2ZM60.24 75.44a3 3 0 0 0 4.098-1.098l-3.464-2a1 1 0 0 1 1.366-.366l-2 3.464Zm-1.895-1.093 1.895 1.093 2-3.464-1.895-1.094-2 3.465Zm-3.556 3.105a15.06 15.06 0 0 0 5.912-3.367l-2.712-2.94a11.06 11.06 0 0 1-4.341 2.473l1.14 3.834Zm1.43.427v-2.344h-4v2.344h4Zm-3 3a3 3 0 0 0 3-3h-4a1 1 0 0 1 1-1v4Zm-5.473 0h5.472v-4h-5.472v4Zm-3-3a3 3 0 0 0 3 3v-4a1 1 0 0 1 1 1h-4Zm0-2.344v2.344h4v-2.344h-4Zm-4.71-1.664a15.064 15.064 0 0 0 6.14 3.58l1.14-3.833a11.065 11.065 0 0 1-4.508-2.631l-2.772 2.884Zm.17 1.57 2.216-1.28-2-3.464-2.216 1.28 2 3.463Zm-4.098-1.099a3 3 0 0 0 4.098 1.098l-2-3.464a1 1 0 0 1 1.366.366l-3.464 2Zm-2.736-4.739 2.736 4.74 3.464-2-2.736-4.74-3.464 2Zm1.098-4.098a3 3 0 0 0-1.098 4.098l3.464-2a1 1 0 0 1-.366 1.366l-2-3.464Zm2.265-1.308-2.265 1.308 2 3.464 2.265-1.308-2-3.464ZM35.405 63c0 1.158.13 2.288.38 3.375l3.899-.892A11.121 11.121 0 0 1 39.405 63h-4Zm.364-3.307A15.124 15.124 0 0 0 35.405 63h4c0-.838.093-1.652.268-2.433l-3.904-.874Zm-1.3.869 2.252 1.3 2-3.464-2.252-1.3-2 3.464Zm-1.098-4.098a3 3 0 0 0 1.098 4.098l2-3.464a1 1 0 0 1 .366 1.366l-3.464-2Zm2.736-4.74-2.736 4.74 3.464 2 2.736-4.74-3.464-2Zm4.098-1.097a3 3 0 0 0-4.098 1.098l3.464 2a1 1 0 0 1-1.366.366l2-3.464Zm2.173 1.254-2.173-1.254-2 3.464 2.173 1.254 2-3.464Zm3.797-3.333a15.066 15.066 0 0 0-6.19 3.63l2.785 2.87a11.065 11.065 0 0 1 4.546-2.666l-1.141-3.834Zm-1.43-.426v2.343h4v-2.343h-4ZM53.5 63a3 3 0 0 1-3 3v4a7 7 0 0 0 7-7h-4Zm-3-3a3 3 0 0 1 3 3h4a7 7 0 0 0-7-7v4Zm-3 3a3 3 0 0 1 3-3v-4a7 7 0 0 0-7 7h4Zm3 3a3 3 0 0 1-3-3h-4a7 7 0 0 0 7 7v-4Z" fill="url(#b)" mask="url(#c)"/><defs><linearGradient id="a" x1="50.43" y1="40.157" x2="104.088" y2="67.824" gradientUnits="userSpaceOnUse"><stop stop-color="#1E74EC"/><stop offset="1" stop-color="#002984"/></linearGradient><linearGradient id="b" x1="34.969" y1="51.587" x2="66.51" y2="77.626" gradientUnits="userSpaceOnUse"><stop stop-color="#1E74EC"/><stop offset="1" stop-color="#002984"/></linearGradient></defs></svg>