<svg width="129" height="128" fill="none" xmlns="http://www.w3.org/2000/svg"><path d="M31 74a1 1 0 1 0 0 2v-2Zm7.677 2a1 1 0 1 0 0-2v2Zm17.549-2a1 1 0 1 0 0 2v-2Zm7.677 2a1 1 0 1 0 0-2v2Zm17.549-2a1 1 0 1 0 0 2v-2Zm7.677 2a1 1 0 1 0 0-2v2ZM56.226 34a1 1 0 1 0 0 2v-2Zm7.677 2a1 1 0 1 0 0-2v2ZM40.871 92a1 1 0 1 0 0 2v-2Zm7.677 2a1 1 0 1 0 0-2v2Zm17.549-2a1 1 0 1 0 0 2v-2Zm7.677 2a1 1 0 1 0 0-2v2Zm17.549-2a1 1 0 1 0 0 2v-2ZM99 94a1 1 0 1 0 0-2v2ZM66.097 52a1 1 0 1 0 0 2v-2Zm7.677 2a1 1 0 1 0 0-2v2ZM66 58a1 1 0 1 0-2 0h2Zm-26.226 5v-1a1 1 0 0 0-1 1h1Zm50.452 0h1a1 1 0 0 0-1-1v1Zm-51.452 7a1 1 0 1 0 2 0h-2ZM64 70a1 1 0 1 0 2 0h-2Zm25.226 0a1 1 0 1 0 2 0h-2Zm-57.13 1h15.356v-2H32.097v2Zm15.452 0v26h2V71h-2Zm-.096 26H32.097v2h15.355v-2ZM32 97V71h-2v26h2Zm.097 0a.152.152 0 0 1-.102-.032c-.006-.005-.005-.006-.002 0 .004.008.007.02.007.032h-2c0 1.19 1.028 2 2.097 2v-2Zm15.451 0c0-.012.003-.024.007-.032.003-.006.004-.005-.002 0a.152.152 0 0 1-.101.032v2c1.069 0 2.096-.81 2.096-2h-2Zm-.096-26c.056 0 .089.02.101.032.006.005.005.006.002 0a.079.079 0 0 1-.007-.032h2c0-1.19-1.027-2-2.096-2v2Zm-15.355-2c-1.07 0-2.097.81-2.097 2h2a.079.079 0 0 1-.007.032c-.003.006-.004.005.002 0a.153.153 0 0 1 .102-.032v-2Zm25.226 2h15.354v-2H57.323v2Zm15.451 0v26h2V71h-2Zm-.097 26H57.323v2h15.354v-2Zm-15.451 0V71h-2v26h2Zm.097 0a.152.152 0 0 1-.102-.032c-.006-.005-.005-.006-.002 0 .004.008.007.02.007.032h-2c0 1.19 1.028 2 2.097 2v-2Zm15.451 0c0-.012.003-.024.007-.032.003-.006.004-.005-.002 0a.153.153 0 0 1-.102.032v2c1.07 0 2.097-.81 2.097-2h-2Zm-.097-26c.056 0 .09.02.102.032.006.005.005.006.002 0a.079.079 0 0 1-.007-.032h2c0-1.19-1.028-2-2.097-2v2Zm-15.354-2c-1.07 0-2.097.81-2.097 2h2a.079.079 0 0 1-.007.032c-.003.006-.004.005.002 0a.153.153 0 0 1 .102-.032v-2Zm25.225 2h15.355v-2H82.548v2ZM98 71v26h2V71h-2Zm-.097 26H82.548v2h15.355v-2Zm-15.451 0V71h-2v26h2Zm.096 0a.152.152 0 0 1-.101-.032c-.006-.005-.005-.006-.002 0 .004.008.007.02.007.032h-2c0 1.19 1.027 2 2.096 2v-2ZM98 97c0-.012.003-.024.007-.032.003-.006.004-.005-.002 0a.153.153 0 0 1-.102.032v2c1.07 0 2.097-.81 2.097-2h-2Zm-.097-26c.056 0 .09.02.102.032.006.005.005.006.002 0A.079.079 0 0 1 98 71h2c0-1.19-1.028-2-2.097-2v2Zm-15.355-2c-1.069 0-2.096.81-2.096 2h2a.079.079 0 0 1-.007.032c-.003.006-.004.005.002 0a.153.153 0 0 1 .101-.032v-2ZM57.323 31h15.354v-2H57.323v2Zm15.451 0v26h2V31h-2Zm-.097 26H57.323v2h15.354v-2Zm-15.451 0V31h-2v26h2Zm.097 0a.153.153 0 0 1-.102-.032c-.006-.005-.005-.006-.002 0 .004.008.007.02.007.032h-2c0 1.19 1.028 2 2.097 2v-2Zm15.451 0c0-.012.003-.024.007-.032.003-.006.004-.005-.002 0a.153.153 0 0 1-.102.032v2c1.07 0 2.097-.81 2.097-2h-2Zm-.097-26c.056 0 .09.02.102.032.006.005.005.006.002 0a.079.079 0 0 1-.007-.032h2c0-1.19-1.028-2-2.097-2v2Zm-15.354-2c-1.07 0-2.097.81-2.097 2h2a.078.078 0 0 1-.007.032c-.003.006-.004.005.002 0a.153.153 0 0 1 .102-.032v-2ZM31 76h7.677v-2H31v2Zm25.226 0h7.677v-2h-7.677v2Zm25.226 0h7.677v-2h-7.677v2ZM56.226 36h7.677v-2h-7.677v2ZM40.87 94h7.677v-2h-7.677v2Zm25.226 0h7.677v-2h-7.677v2Zm25.226 0H99v-2h-7.677v2ZM66.097 54h7.677v-2h-7.677v2ZM64 58v5h2v-5h-2Zm-24.226 6h50.452v-2H39.774v2Zm-1-1v7h2v-7h-2ZM64 63v7h2v-7h-2Zm25.226 0v7h2v-7h-2Z" fill="url(#a)"/><defs><linearGradient id="a" x1="31" y1="39.563" x2="99" y2="98" gradientUnits="userSpaceOnUse"><stop stop-color="#1E74EC"/><stop offset="1" stop-color="#002984"/></linearGradient></defs></svg>