<svg width="80" height="80" fill="none" xmlns="http://www.w3.org/2000/svg"><path d="M26.015 69.886h-.98v.98h.98v-.98Zm28.847 0v.98h.892l.083-.889-.975-.091Zm20.496-4.627v.979h.892l.083-.888-.975-.091ZM4 65.258h-.979v.979h.98v-.98Zm50.956 0-.978.046.978-.047ZM31.742 53.935l.267.942-.267-.942Zm6.336-36.848.932.303-.932-.303Zm-6.442.125-.575.793.575-.793Zm5.168 3.798-.931-.303.93.303Zm-.018-.056.575-.793-.575.793Zm-1.872 6.165-.575-.792.575.792Zm-.077-.056.931.303-.931-.303Zm5.285-3.685.576-.792-.575.792Zm-.059 0 .576.792-.576-.792Zm5.286 3.685.931-.302-.931.302Zm-.077.056-.576.793.576-.793ZM43.4 20.955l-.575-.793.575.793Zm-.018.056-.931.302.931-.302Zm5.168-3.798.575.793-.575-.793Zm-6.442-.125-.932.303.932-.303Zm-1.967-6.054.931-.302-.931.303Zm-.096 0-.931-.302.931.303Zm-14.03 59.831h28.847v-1.959H26.015v1.96Zm50.318-5.515c.26-2.767.227-6.946-.752-10.475-.49-1.766-1.237-3.445-2.372-4.698-1.161-1.282-2.71-2.093-4.683-2.093v1.958c1.367 0 2.405.538 3.231 1.45.852.94 1.49 2.297 1.936 3.906.893 3.219.937 7.138.69 9.77l1.95.182Zm-7.807-17.266H54.103v1.958h14.423v-1.958Zm-42.511 0H11.592v1.958h14.423v-1.958Zm-14.423 0c-2.157 0-3.833.767-5.087 2.042-1.227 1.246-2 2.924-2.498 4.686-.993 3.509-.986 7.698-.986 10.447H4.98c0-2.805.006-6.713.912-9.914.45-1.593 1.1-2.923 2.009-3.845.88-.895 2.051-1.458 3.69-1.458v-1.958Zm43.364 18.154h20.402v-1.959H54.956v1.959Zm.88 3.74a34.51 34.51 0 0 0 .099-4.766l-1.957.093c.08 1.658.027 3.23-.091 4.49l1.95.182Zm.099-4.766c-.132-2.732-.607-5.776-1.756-8.17-1.162-2.422-3.106-4.331-6.15-4.331v1.959c2.024 0 3.414 1.197 4.384 3.22.984 2.05 1.439 4.791 1.565 7.415l1.956-.094Zm-1.833-17.128c-1.84 0-3.34.559-4.53 1.533-1.172.96-1.985 2.277-2.555 3.712l1.82.723c.492-1.237 1.14-2.234 1.977-2.92.82-.671 1.875-1.09 3.288-1.09v-1.958ZM48.03 52.71h-.103v1.959h.102V52.71Zm-.103 0h-14.32v1.959h14.32V52.71Zm-15.265.888c-1.081-2.952-3.106-5.515-6.647-5.515v1.958c2.325 0 3.844 1.599 4.808 4.23l1.839-.673Zm.944-.888c-.763 0-1.473.096-2.13.282l.533 1.885c.47-.133 1-.208 1.597-.208V52.71Zm-2.13.282c-2.512.712-4.025 2.656-4.93 4.901-.901 2.234-1.258 4.89-1.406 7.305l1.955.119c.143-2.346.485-4.752 1.267-6.691.777-1.927 1.931-3.263 3.647-3.75l-.534-1.884ZM25.14 65.2c-.105 1.723-.104 3.365-.104 4.687h1.958c0-1.327 0-2.912.101-4.568l-1.955-.12ZM4 66.238h22.118v-1.959H4v1.959Zm21.672-29.53c0 4.511-3.692 8.183-8.264 8.183v1.959c5.638 0 10.223-4.533 10.223-10.142h-1.959Zm-8.264 8.183c-4.572 0-8.264-3.672-8.264-8.183H7.186c0 5.61 4.585 10.142 10.222 10.142V44.89Zm-8.264-8.183c0-4.51 3.692-8.182 8.264-8.182v-1.959c-5.637 0-10.222 4.532-10.222 10.141h1.958Zm8.264-8.182c4.572 0 8.264 3.671 8.264 8.182h1.959c0-5.609-4.585-10.141-10.223-10.141v1.959ZM48.78 41.289c0 4.511-3.691 8.183-8.264 8.183v1.959c5.638 0 10.223-4.533 10.223-10.142H48.78Zm-8.264 8.183c-4.572 0-8.264-3.672-8.264-8.183h-1.958c0 5.61 4.585 10.142 10.222 10.142v-1.959Zm-8.264-8.183c0-4.51 3.692-8.182 8.264-8.182v-1.959c-5.637 0-10.222 4.532-10.222 10.141h1.958Zm8.264-8.182c4.573 0 8.264 3.671 8.264 8.182h1.959c0-5.609-4.585-10.141-10.223-10.141v1.959Zm29.832 3.601c0 4.511-3.692 8.183-8.264 8.183v1.959c5.638 0 10.222-4.533 10.222-10.142h-1.958Zm-8.264 8.183c-4.572 0-8.264-3.672-8.264-8.183h-1.959c0 5.61 4.585 10.142 10.223 10.142V44.89Zm-8.264-8.183c0-4.51 3.692-8.182 8.264-8.182v-1.959c-5.638 0-10.223 4.532-10.223 10.141h1.959Zm8.264-8.182c4.572 0 8.264 3.671 8.264 8.182h1.959c0-5.609-4.585-10.141-10.223-10.141v1.959ZM39.209 11.337l1.967 6.054 1.863-.606-1.967-6.053-1.863.605Zm2.946 6.765h6.365v-1.959h-6.365v1.959Zm5.82-1.68-5.15 3.74 1.151 1.585 5.15-3.741-1.152-1.585Zm-5.524 4.891 1.967 6.054 1.862-.605-1.967-6.054-1.862.605Zm3.396 5.015-5.149-3.741-1.151 1.584 5.15 3.742 1.15-1.585Zm-6.36-3.741-5.148 3.74 1.15 1.585 5.15-3.74-1.151-1.585Zm-3.719 4.78 1.967-6.054-1.862-.605-1.967 6.054 1.862.605Zm1.593-7.205-5.15-3.74-1.15 1.584 5.149 3.74 1.151-1.584Zm-5.695-2.06h6.365v-1.959h-6.365v1.959Zm7.344-.711 1.967-6.054-1.863-.605-1.967 6.053 1.863.606Zm-.98.711c.447 0 .842-.287.98-.711l-1.863-.606a.93.93 0 0 1 .884-.642v1.959Zm-5.818-1.68c.728.528.354 1.68-.546 1.68v-1.959c-.997 0-1.412 1.276-.605 1.863l1.15-1.585Zm5.523 4.891a1.03 1.03 0 0 0-.374-1.15l-1.151 1.584a.93.93 0 0 1-.337-1.039l1.862.605Zm-3.396 5.015c.728-.53 1.708.183 1.43 1.039l-1.863-.605c-.309.948.777 1.737 1.584 1.15l-1.151-1.584Zm6.36-3.741a1.03 1.03 0 0 0-1.211 0l1.151 1.584a.929.929 0 0 1-1.092 0l1.151-1.584Zm3.719 4.78c-.279-.856.701-1.568 1.43-1.04l-1.152 1.585c.807.587 1.893-.202 1.584-1.15l-1.862.605Zm-1.593-7.205a1.03 1.03 0 0 0-.374 1.151l1.862-.605a.93.93 0 0 1-.337 1.039l-1.151-1.585Zm5.695-2.06c-.9 0-1.274-1.152-.546-1.68l1.151 1.584c.807-.587.392-1.863-.605-1.863v1.959Zm-7.344-.711c.138.424.533.711.98.711v-1.959c.402 0 .759.26.883.642l-1.863.606Zm-.104-6.66c-.308-.948-1.65-.948-1.958 0l1.863.606c-.278.856-1.49.856-1.768 0l1.863-.605Z" fill="url(#a)"/><defs><linearGradient id="a" x1="4" y1="19.281" x2="63.51" y2="81.37" gradientUnits="userSpaceOnUse"><stop stop-color="#1E74EC"/><stop offset="1" stop-color="#002984"/></linearGradient></defs></svg>