<svg width="80" height="80" fill="none" xmlns="http://www.w3.org/2000/svg"><path d="M27.324 71h-1v1h1v-1Zm26.63 0v1h.914l.083-.91-.996-.09Zm18.923-4.444v1h.914l.082-.91-.996-.09ZM7 66.556H6v1h1v-1Zm47.042 0-.999.046.999-.046ZM32.61 55.68l.283.96-.283-.96ZM27.324 72h26.63v-2h-26.63v2Zm46.549-5.355c.24-2.659.21-6.675-.696-10.07-.452-1.696-1.144-3.317-2.2-4.53C69.892 50.8 68.434 50 66.569 50v2c1.218 0 2.148.496 2.899 1.358.777.893 1.365 2.188 1.777 3.733.823 3.087.863 6.849.636 9.375l1.992.18ZM66.569 50H53.254v2h13.315v-2Zm-39.245 0H14.008v2h13.316v-2Zm-13.316 0c-2.029 0-3.605.754-4.778 1.993-1.143 1.209-1.859 2.83-2.319 4.522C5.994 59.89 6 63.916 6 66.555h2c0-2.694.006-6.444.841-9.515.416-1.53 1.014-2.797 1.842-3.672.798-.844 1.85-1.368 3.325-1.368v-2Zm40.034 17.556h18.835v-2H54.042v2Zm.909 3.534c.116-1.296.168-2.896.09-4.58l-1.998.092c.074 1.59.025 3.1-.084 4.308l1.992.18Zm.09-4.58c-.121-2.625-.56-5.552-1.623-7.858-1.073-2.326-2.89-4.208-5.77-4.208v2c1.796 0 3.057 1.102 3.954 3.045.905 1.964 1.325 4.592 1.441 7.113l1.998-.093ZM53.254 50c-1.73 0-3.143.548-4.258 1.499-1.096.934-1.85 2.209-2.377 3.588l1.868.714c.453-1.186 1.048-2.134 1.806-2.78.74-.63 1.687-1.021 2.96-1.021v-2Zm-5.607 4.444h-.094v2h.094v-2Zm-.094 0H34.332v2h13.22v-2Zm-13.999.904C32.56 52.524 30.675 50 27.324 50v2c2.063 0 3.45 1.474 4.344 4.012l1.886-.664Zm.778-.904c-.717 0-1.384.094-2.004.277l.566 1.918a5.06 5.06 0 0 1 1.438-.195v-2Zm-2.004.277c-2.366.697-3.773 2.597-4.609 4.752-.833 2.15-1.163 4.705-1.299 7.024l1.997.117c.132-2.253.447-4.56 1.167-6.418.718-1.852 1.774-3.104 3.31-3.557l-.566-1.918ZM26.42 66.497c-.097 1.656-.096 3.234-.096 4.503h2c0-1.274 0-2.796.093-4.386l-1.997-.117ZM7 67.556h20.419v-2H7v2Z" fill="#E6E8EF"/><mask id="a" fill="#fff"><path d="M27.976 39.4c0 4.64-3.8 8.4-8.488 8.4S11 44.04 11 39.4c0-4.64 3.8-8.4 8.488-8.4s8.488 3.76 8.488 8.4ZM49.195 43.6c0 4.64-3.8 8.4-8.488 8.4-4.687 0-8.488-3.76-8.488-8.4 0-4.64 3.8-8.4 8.488-8.4s8.488 3.76 8.488 8.4ZM69 39.4c0 4.64-3.8 8.4-8.488 8.4s-8.488-3.76-8.488-8.4c0-4.64 3.8-8.4 8.488-8.4S69 34.76 69 39.4Z"/></mask><path d="M25.976 39.4c0 3.515-2.885 6.4-6.488 6.4v4c5.772 0 10.488-4.637 10.488-10.4h-4Zm-6.488 6.4C15.885 45.8 13 42.915 13 39.4H9c0 5.763 4.715 10.4 10.488 10.4v-4ZM13 39.4c0-3.515 2.885-6.4 6.488-6.4v-4C13.715 29 9 33.637 9 39.4h4Zm6.488-6.4c3.603 0 6.488 2.885 6.488 6.4h4c0-5.763-4.716-10.4-10.488-10.4v4Zm27.707 10.6c0 3.515-2.885 6.4-6.488 6.4v4c5.773 0 10.488-4.637 10.488-10.4h-4ZM40.707 50c-3.602 0-6.488-2.885-6.488-6.4h-4c0 5.763 4.716 10.4 10.488 10.4v-4Zm-6.488-6.4c0-3.515 2.886-6.4 6.488-6.4v-4c-5.772 0-10.488 4.637-10.488 10.4h4Zm6.488-6.4c3.603 0 6.488 2.885 6.488 6.4h4c0-5.763-4.715-10.4-10.488-10.4v4ZM67 39.4c0 3.515-2.885 6.4-6.488 6.4v4C66.285 49.8 71 45.163 71 39.4h-4Zm-6.488 6.4c-3.603 0-6.488-2.885-6.488-6.4h-4c0 5.763 4.716 10.4 10.488 10.4v-4Zm-6.488-6.4c0-3.515 2.885-6.4 6.488-6.4v-4c-5.772 0-10.488 4.637-10.488 10.4h4Zm6.488-6.4C64.115 33 67 35.885 67 39.4h4C71 33.637 66.285 29 60.512 29v4Z" fill="#E6E8EF" mask="url(#a)"/><path d="m40 6 2.919 8.983h9.445l-7.642 5.551 2.92 8.983L40 23.966l-7.641 5.551 2.919-8.983-7.642-5.551h9.445L40 6Z" stroke="#E6E8EF" stroke-width="2" stroke-linejoin="round"/></svg>