<svg width="129" height="128" fill="none" xmlns="http://www.w3.org/2000/svg"><path d="M90.453 61.228v-1a1 1 0 0 0-1 1h1Zm6.047 0h1a1 1 0 0 0-1-1v1Zm0 6.048v1a1 1 0 0 0 1-1h-1Zm-6.047 0h-1a1 1 0 0 0 1 1v-1ZM32.5 62.236v-1a1 1 0 0 0-1 1h1Zm6.047 0h1a1 1 0 0 0-1-1v1Zm0 6.048v1a1 1 0 0 0 1-1h-1Zm-6.047 0h-1a1 1 0 0 0 1 1v-1Zm29.228 21.669v-1a1 1 0 0 0-1 1h1Zm6.048 0h1a1 1 0 0 0-1-1v1Zm0 6.047v1a1 1 0 0 0 1-1h-1Zm-6.048 0h-1a1 1 0 0 0 1 1v-1Zm0-64v-1a1 1 0 0 0-1 1h1Zm6.048 0h1a1 1 0 0 0-1-1v1Zm0 6.047v1a1 1 0 0 0 1-1h-1Zm-6.048 0h-1a1 1 0 0 0 1 1v-1ZM95.5 61.228v6.048h2v-6.048h-2Zm-4.047 6.048v-6.048h-2v6.048h2Zm-53.906-5.04v6.048h2v-6.048h-2ZM33.5 68.284v-6.048h-2v6.048h2Zm28.228 22.669h6.048v-2h-6.048v2ZM67.776 95h-6.048v2h6.048v-2Zm-6.048-62h6.048v-2h-6.048v2Zm6.048 4.047h-6.048v2h6.048v-2ZM96.5 66.276h-2.674v2H96.5v-2Zm-2.674 0h-3.373v2h3.373v-2Zm-3.373-4.048h3.373v-2h-3.373v2Zm3.373 0H96.5v-2h-2.674v2Zm-.995 4.945C91.47 80.43 80.93 90.97 67.673 92.331l.205 1.99C82.077 92.86 93.36 81.577 94.82 67.378l-1.99-.205Zm-26.055 22.78v3.373h2v-3.373h-2Zm0 3.373V96h2v-2.674h-2ZM62.728 96v-2.674h-2V96h2Zm0-2.674v-3.373h-2v3.373h2ZM32.5 63.236h3.024v-2H32.5v2Zm29.33 29.095C48.9 91.002 38.556 80.943 36.79 68.147l-1.981.273c1.89 13.706 12.967 24.477 26.817 25.9l.205-1.989ZM38.548 67.284H35.8v2h2.748v-2Zm-2.748 0H32.5v2h3.3v-2Zm-.275-4.048h.068v-2h-.068v2Zm.068 0h2.955v-2h-2.955v2Zm.998-.932c.934-13.71 11.661-24.736 25.24-26.131l-.204-1.99c-14.544 1.495-26.031 13.3-27.032 27.985l1.996.136Zm26.138-24.257v-2.869h-2v2.87h2Zm0-2.869V32h-2v3.178h2Zm4.945.995C80.93 37.535 91.47 48.074 92.831 61.33l1.99-.205c-1.46-14.199-12.744-25.483-26.943-26.943l-.205 1.99ZM66.776 32v3.178h2V32h-2Zm0 3.178v2.87h2v-2.87h-2Z" fill="url(#a)"/><path stroke="url(#b)" stroke-width="2" stroke-linecap="round" d="M61.5 77.362h6.063"/><path d="M64.579 50.142 54.5 66.556l6.72 7.775h6.718l6.72-7.775-10.08-16.414Zm0 0v13.194" stroke="url(#c)" stroke-width="2" stroke-linejoin="round"/><circle cx="64.516" cy="66.268" r="3.016" stroke="url(#d)" stroke-width="2"/><defs><linearGradient id="a" x1="32.5" y1="41" x2="96.5" y2="96" gradientUnits="userSpaceOnUse"><stop stop-color="#1E74EC"/><stop offset="1" stop-color="#002984"/></linearGradient><linearGradient id="b" x1="60.5" y1="78.503" x2="60.786" y2="80.485" gradientUnits="userSpaceOnUse"><stop stop-color="#1E74EC"/><stop offset="1" stop-color="#002984"/></linearGradient><linearGradient id="c" x1="54.5" y1="53.543" x2="77.664" y2="70.132" gradientUnits="userSpaceOnUse"><stop stop-color="#1E74EC"/><stop offset="1" stop-color="#002984"/></linearGradient><linearGradient id="d" x1="62.5" y1="64.819" x2="66.531" y2="68.283" gradientUnits="userSpaceOnUse"><stop stop-color="#1E74EC"/><stop offset="1" stop-color="#002984"/></linearGradient></defs></svg>