<svg width="80" height="80" fill="none" xmlns="http://www.w3.org/2000/svg"><path d="M25 28V16a1 1 0 0 1 1-1h28a1 1 0 0 1 1 1v48a1 1 0 0 1-1 1H26a1 1 0 0 1-1-1V51.5M25 36v7.5" stroke="url(#a)" stroke-width="2" stroke-linecap="round" stroke-linejoin="round"/><path d="M35.876 40.858a1.286 1.286 0 0 1 0-1.716l1.693-1.872a1.28 1.28 0 0 0 .159-1.52l-2.646-4.498a1.315 1.315 0 0 0-.605-.537 1.345 1.345 0 0 0-.811-.087l-2.488.494a1.343 1.343 0 0 1-.926-.145 1.305 1.305 0 0 1-.595-.713l-.808-2.378a1.302 1.302 0 0 0-.483-.641 1.34 1.34 0 0 0-.774-.243H22.3a1.34 1.34 0 0 0-.813.223c-.239.16-.418.392-.51.66l-.74 2.38c-.104.3-.316.554-.596.712-.28.158-.61.21-.927.145l-2.553-.494a1.344 1.344 0 0 0-.758.116 1.314 1.314 0 0 0-.566.508L12.19 35.75a1.281 1.281 0 0 0 .132 1.52l1.68 1.872a1.286 1.286 0 0 1 0 1.716l-1.68 1.872a1.281 1.281 0 0 0-.132 1.52l2.646 4.498c.14.237.351.425.605.537.255.112.538.142.811.087l2.488-.494c.316-.065.646-.013.926.145s.492.412.596.713l.807 2.378c.092.27.271.501.51.661.239.16.524.238.813.223h5.293c.277 0 .548-.084.774-.243.225-.158.394-.383.483-.64l.807-2.38c.103-.3.315-.554.595-.712.28-.158.61-.21.927-.145l2.487.494c.273.055.557.025.811-.087.255-.112.466-.3.605-.537l2.647-4.498a1.28 1.28 0 0 0-.159-1.52l-1.786-1.872ZM33.904 42.6l1.059 1.17-1.694 2.885-1.561-.312a4.032 4.032 0 0 0-2.786.447 3.915 3.915 0 0 0-1.78 2.153l-.502 1.456h-3.388l-.476-1.482a3.915 3.915 0 0 0-1.78-2.153 4.032 4.032 0 0 0-2.785-.447l-1.562.312-1.72-2.872 1.059-1.17a3.86 3.86 0 0 0 1.01-2.6c0-.96-.36-1.885-1.01-2.6l-1.06-1.17 1.695-2.86 1.561.313a4.032 4.032 0 0 0 2.786-.447 3.915 3.915 0 0 0 1.78-2.153l.502-1.469h3.388l.502 1.482a3.915 3.915 0 0 0 1.78 2.153c.841.48 1.832.638 2.785.447l1.562-.312 1.694 2.886-1.059 1.17a3.86 3.86 0 0 0-.999 2.586 3.86 3.86 0 0 0 1 2.587Zm-8.958-7.8a5.36 5.36 0 0 0-2.94.877 5.222 5.222 0 0 0-1.95 2.333c-.4.95-.506 1.996-.302 3.004a5.173 5.173 0 0 0 1.45 2.662 5.323 5.323 0 0 0 2.71 1.423c1.026.201 2.09.098 3.057-.295a5.274 5.274 0 0 0 2.376-1.915c.581-.855.892-1.86.892-2.889a5.153 5.153 0 0 0-1.55-3.676 5.342 5.342 0 0 0-3.743-1.523Zm0 7.8a2.68 2.68 0 0 1-1.47-.439 2.61 2.61 0 0 1-.975-1.166 2.556 2.556 0 0 1-.15-1.502c.101-.504.353-.968.723-1.331.37-.364.842-.611 1.355-.712a2.691 2.691 0 0 1 1.53.148c.483.197.896.53 1.187.958a2.567 2.567 0 0 1-.329 3.282 2.67 2.67 0 0 1-1.871.762Z" fill="url(#b)"/><path d="M25 23h30" stroke="url(#c)" stroke-width="2" stroke-linecap="round" stroke-linejoin="round"/><path d="M25 55h30" stroke="url(#d)" stroke-width="2" stroke-linecap="round" stroke-linejoin="round"/><path stroke="url(#e)" stroke-width="2" stroke-linecap="round" stroke-linejoin="round" d="M36 59h8"/><path stroke="url(#f)" stroke-width="2" stroke-linecap="round" stroke-linejoin="round" d="M36 27h14"/><path stroke="url(#g)" stroke-width="2" stroke-linecap="round" stroke-linejoin="round" d="M44 31h6"/><defs><linearGradient id="a" x1="25" y1="22.031" x2="66.201" y2="43.276" gradientUnits="userSpaceOnUse"><stop stop-color="#1E74EC"/><stop offset="1" stop-color="#002984"/></linearGradient><linearGradient id="b" x1="12" y1="30.656" x2="38" y2="53" gradientUnits="userSpaceOnUse"><stop stop-color="#1E74EC"/><stop offset="1" stop-color="#002984"/></linearGradient><linearGradient id="c" x1="25" y1="23.141" x2="25.078" y2="25.161" gradientUnits="userSpaceOnUse"><stop stop-color="#1E74EC"/><stop offset="1" stop-color="#002984"/></linearGradient><linearGradient id="d" x1="25" y1="55.141" x2="25.078" y2="57.161" gradientUnits="userSpaceOnUse"><stop stop-color="#1E74EC"/><stop offset="1" stop-color="#002984"/></linearGradient><linearGradient id="e" x1="35" y1="60.141" x2="35.232" y2="62.137" gradientUnits="userSpaceOnUse"><stop stop-color="#1E74EC"/><stop offset="1" stop-color="#002984"/></linearGradient><linearGradient id="f" x1="35" y1="28.141" x2="35.146" y2="30.153" gradientUnits="userSpaceOnUse"><stop stop-color="#1E74EC"/><stop offset="1" stop-color="#002984"/></linearGradient><linearGradient id="g" x1="43" y1="32.141" x2="43.288" y2="34.122" gradientUnits="userSpaceOnUse"><stop stop-color="#1E74EC"/><stop offset="1" stop-color="#002984"/></linearGradient></defs></svg>