<svg width="80" height="80" fill="none" xmlns="http://www.w3.org/2000/svg"><path d="m35.5 49.333-.864-.503a1 1 0 0 1 .864-.497v1Zm8 0v-1a1 1 0 0 1 .862.493l-.862.507ZM11.615 34l.972.234-.972-.234Zm.151 13 .97-.24-.97.24ZM35.5 48.333h8v2h-8v-2ZM21.85 55c5.246 0 10.447-2.157 12.786-6.17l1.728 1.007C33.54 54.68 27.515 57 21.85 57v-2Zm22.512-6.174c1.147 1.949 3.241 3.5 5.784 4.567C52.678 54.457 55.562 55 58.15 55v2c-2.844 0-5.991-.592-8.779-1.763-2.777-1.166-5.291-2.948-6.733-5.396l1.724-1.015ZM21.85 25H40v2H21.85v-2ZM40 25h19.8v2H40v-2Zm-18.15 2c-2.837 0-4.854.723-6.29 1.923-1.445 1.207-2.414 2.99-2.973 5.311l-1.944-.468c.625-2.596 1.763-4.814 3.634-6.378C16.156 25.818 18.664 25 21.85 25v2Zm-9.263 7.234C12.183 35.914 12 37.851 12 40h-2c0-2.253.19-4.356.643-6.234l1.944.468ZM12 40c0 2.386.225 4.696.737 6.76l-1.942.48C10.235 44.981 10 42.502 10 40h2Zm.737 6.76c.612 2.472 1.62 4.53 3.082 5.962C17.26 54.132 19.203 55 21.85 55v2c-3.134 0-5.592-1.05-7.429-2.849-1.814-1.776-2.957-4.218-3.625-6.91l1.942-.481Zm-1.535-11.85c-.644-.291-1.07-.266-1.36-.155-.31.118-.635.398-.936.927-.615 1.083-.928 2.869-.86 4.782.07 1.907.509 3.716 1.187 4.827.337.552.677.843.971.96.254.102.595.125 1.1-.138l.924 1.774c-.937.487-1.888.573-2.767.221-.838-.335-1.47-1.013-1.935-1.774-.924-1.514-1.402-3.705-1.478-5.798-.075-2.087.243-4.3 1.12-5.843.446-.784 1.082-1.472 1.962-1.807.9-.343 1.888-.255 2.898.203l-.826 1.822ZM69.5 40c0-2.152-.173-4.091-.563-5.774l1.948-.452c.435 1.876.615 3.976.615 6.226h-2Zm-.563-5.774c-.54-2.325-1.48-4.104-2.898-5.308-1.41-1.196-3.402-1.918-6.24-1.918v-2c3.187 0 5.678.819 7.534 2.393 1.847 1.568 2.95 3.788 3.552 6.381l-1.948.452ZM58.15 55c5.224 0 8.692-3.424 10.32-8.316l1.898.632C68.557 52.755 64.489 57 58.15 57v-2Zm10.32-8.316c.683-2.049 1.03-4.336 1.03-6.684h2c0 2.54-.375 5.042-1.132 7.316l-1.898-.632Zm.95-13.555c1.042-.588 2.081-.795 3.051-.516.96.276 1.656.972 2.138 1.782.945 1.585 1.278 3.938 1.181 6.149-.097 2.217-.639 4.551-1.692 6.11-.534.789-1.257 1.463-2.203 1.733-.972.278-1.995.075-2.995-.532l1.039-1.71c.645.392 1.093.409 1.407.32.341-.098.72-.377 1.095-.931.763-1.13 1.262-3.045 1.351-5.078.09-2.04-.245-3.936-.901-5.038-.318-.534-.656-.792-.973-.883-.306-.088-.786-.076-1.516.336l-.983-1.742Z" fill="#E6E8EF"/><path d="M25 23c6.25-6.667 23.75-6.667 30 0" stroke="#E6E8EF" stroke-width="2" stroke-linecap="round"/><path d="M65.314 18.879a1 1 0 0 0 1.414-1.415l-1.414 1.415Zm-.59-1.575.382-.923-.383.924Zm-3.062 0 .382.924-.382-.924Zm-2.005.16a1 1 0 1 0 1.414 1.415l-1.414-1.415Zm8.485-1.414a1 1 0 0 0 1.414-1.414l-1.414 1.414Zm-1.888-2.441.382-.924-.382.924Zm-6.123 0 .383.924-.383-.924Zm-3.303 1.027a1 1 0 0 0 1.415 1.414l-1.415-1.414Zm14.85-1.121a1 1 0 0 0 1.414-1.415l-1.414 1.415Zm-3.51-3.525.382-.924-.383.924Zm-9.95 0 .382.923-.383-.923Zm-4.925 2.11a1 1 0 0 0 1.414 1.415L53.293 12.1Zm13.435 5.365a5 5 0 0 0-1.622-1.084l-.766 1.847c.364.151.695.372.974.65l1.414-1.413Zm-1.622-1.084A5 5 0 0 0 63.192 16v2c.394 0 .785.078 1.148.228l.766-1.847ZM63.192 16a5 5 0 0 0-1.913.38l.765 1.848A3 3 0 0 1 63.192 18v-2Zm-1.913.38a4.999 4.999 0 0 0-1.622 1.085l1.414 1.414c.279-.279.61-.5.973-.65l-.765-1.848Zm8.277-1.744a9 9 0 0 0-2.92-1.95l-.765 1.847a7 7 0 0 1 2.271 1.517l1.414-1.414Zm-2.92-1.95A9 9 0 0 0 63.192 12v2c.92 0 1.83.181 2.68.533l.764-1.848ZM63.192 12a9 9 0 0 0-3.444.685l.766 1.848A7.001 7.001 0 0 1 63.192 14v-2Zm-3.444.685a9.001 9.001 0 0 0-2.92 1.951l1.415 1.414a6.999 6.999 0 0 1 2.27-1.517l-.765-1.848Zm13.344-.585a14 14 0 0 0-4.542-3.034l-.765 1.847a12 12 0 0 1 3.893 2.602l1.414-1.415ZM68.55 9.067A14 14 0 0 0 63.192 8v2a12 12 0 0 1 4.593.913l.765-1.847ZM63.192 8a14 14 0 0 0-5.357 1.066l.765 1.847A12 12 0 0 1 63.192 10V8Zm-5.357 1.066a14 14 0 0 0-4.542 3.034l1.414 1.415a12 12 0 0 1 3.893-2.602l-.765-1.847ZM33.572 44.6c-.192 0-.342-.048-.45-.144a.818.818 0 0 1-.234-.36L29.036 32.54a.442.442 0 0 1-.036-.162.366.366 0 0 1 .378-.378h1.584c.168 0 .294.048.378.144a.551.551 0 0 1 .18.252l3.042 9.27 3.024-9.27a.822.822 0 0 1 .18-.252.535.535 0 0 1 .396-.144h1.584c.096 0 .18.036.252.108a.341.341 0 0 1 .126.27.442.442 0 0 1-.036.162l-3.852 11.556a.818.818 0 0 1-.234.36c-.108.096-.258.144-.45.144h-1.98ZM41.83 44.6a.417.417 0 0 1-.305-.126.417.417 0 0 1-.126-.306V32.45c0-.132.042-.24.126-.324A.417.417 0 0 1 41.83 32h4.662c1.452 0 2.598.336 3.438 1.008.84.672 1.26 1.65 1.26 2.934 0 .888-.222 1.626-.666 2.214-.432.588-1.014 1.014-1.746 1.278l2.628 4.59a.448.448 0 0 1 .054.198.341.341 0 0 1-.126.27.345.345 0 0 1-.252.108h-1.638c-.204 0-.36-.054-.468-.162a1.485 1.485 0 0 1-.252-.324l-2.322-4.266H43.9v4.32c0 .12-.042.222-.126.306a.381.381 0 0 1-.306.126H41.83Zm2.07-6.786h2.539c.732 0 1.278-.162 1.638-.486.36-.336.54-.804.54-1.404 0-.6-.18-1.068-.54-1.404-.348-.348-.894-.522-1.638-.522H43.9v3.816Z" fill="#E6E8EF"/></svg>