<svg width="80" height="80" fill="none" xmlns="http://www.w3.org/2000/svg"><path d="m43 34-.65.76a1 1 0 0 0 1.357-.052L43 34Zm11-11 .707.708A1 1 0 0 0 55 23h-1Zm0-4.5-.294-.955A1 1 0 0 0 53 18.5h1Zm6.5-2 .707-.707a1 1 0 0 0-1-.248l.293.955ZM63 19l.956.295a1 1 0 0 0-.249-1.002L63 19Zm-2 6.5v1a1 1 0 0 0 .956-.705L61 25.5Zm-5 0v-1a1 1 0 0 0-.723.31l.723.69Zm-10.5 11-.723-.69a1 1 0 0 0 .016 1.398l.707-.707Zm3 3 .715.7a1 1 0 0 0-.008-1.407l-.707.708ZM25.5 63l.344.94a1 1 0 0 0 .37-.24L25.5 63Zm-5 .5-.336.942.336-.941ZM16 59l-.948.317L16 59Zm0-4.5-.707-.707a1 1 0 0 0-.274.515l.981.193ZM39.5 31l.651-.759a1 1 0 0 0-1.358.052L39.5 31ZM20 27.5l-.678.735A1 1 0 0 0 20 28.5v-1Zm7.5 0v1a1 1 0 0 0 1-1h-1Zm0-7h1a1 1 0 0 0-.24-.65l-.76.65Zm-6-7v-1a1 1 0 0 0-.759 1.651l.76-.65Zm7.5 0 .507-.861A1 1 0 0 0 29 12.5v1Zm8.5 8 .924-.383-.924.383Zm0 9-.973-.228a1 1 0 0 0 .419 1.06l.554-.832Zm1.5 1 .707.708a1 1 0 0 0-.152-1.54L39 31.5ZM31.5 39l-.707.708a1 1 0 0 0 1.414 0L31.5 39Zm-2-2 .707-.707a1 1 0 0 0-.875-.278L29.5 37Zm-7 0-.273.962L22.5 37Zm-9-9.5h-1a1 1 0 0 0 .107.45l.893-.45Zm0-6 .678-.734a1 1 0 0 0-1.678.735h1Zm27 26.5-.73-.684a1 1 0 0 0 .023 1.392L40.5 48ZM54 61.5l-.707.708a1 1 0 0 0 .426.252L54 61.5Zm7.5-.5.715.7-.715-.7Zm1-6.5.986-.168a1 1 0 0 0-.279-.539l-.707.708ZM48 40l.707-.707a1 1 0 0 0-1.436.023L48 40ZM19.793 54.794a1 1 0 0 0 1.414 1.415l-1.414-1.415Zm19.414-16.585a1 1 0 0 0-1.414-1.415l1.414 1.415ZM23.293 58.293a1 1 0 0 0 1.414 1.415l-1.414-1.415Zm19.414-16.585a1 1 0 0 0-1.414-1.415l1.414 1.415Zm1-7 11-11-1.414-1.415-11 11 1.414 1.415ZM55 23v-4.5h-2V23h2Zm-.706-3.545 6.5-2-.588-1.911-6.5 2 .588 1.911Zm5.5-2.248 2.5 2.5 1.413-1.415-2.5-2.5-1.414 1.415Zm2.25 1.498-2 6.5 1.912.589 2-6.5-1.912-.589ZM61 24.5h-5v2h5v-2Zm-5.723.31-10.5 11 1.447 1.381 10.5-11-1.447-1.381ZM44.793 37.208l3 3 1.414-1.415-3-3-1.414 1.415Zm2.992 1.593-23 23.5 1.43 1.399 23-23.5-1.43-1.399ZM25.5 63.001l-.343-.94-.004.002-.02.007a8.082 8.082 0 0 1-.445.144c-.303.091-.725.207-1.197.303-1.002.203-2.014.27-2.654.042l-.673 1.883c1.198.428 2.686.246 3.725.035a15.524 15.524 0 0 0 1.94-.532l.01-.004a.09.09 0 0 0 .003 0l.001-.001L25.5 63Zm-4.663-.442c-1.073-.383-1.863-.852-2.467-1.449-.6-.594-1.067-1.365-1.421-2.426l-1.897.633c.432 1.296 1.045 2.358 1.912 3.215.865.855 1.932 1.457 3.2 1.91l.673-1.883Zm-3.888-3.875c-.21-.632-.228-1.586-.16-2.483a15.36 15.36 0 0 1 .192-1.505v-.003l-.98-.192-.982-.193v.004l-.002.009-.006.029c-.005.024-.01.06-.019.103a17.39 17.39 0 0 0-.198 1.596c-.07.937-.088 2.233.258 3.268l1.897-.633Zm-.242-3.476 23.5-23.5-1.414-1.415-23.5 23.5 1.414 1.415ZM38.85 31.76l3.5 3 1.302-1.519-3.5-3-1.302 1.519ZM20 28.5h7.5v-2H20v2Zm8.5-1v-7h-2v7h2Zm-.24-7.65-6-7-1.519 1.301 6 7 1.518-1.301ZM21.5 14.5H29v-2h-7.5v2Zm7.5-1-.507.862.003.002.013.007.052.032.21.129a37.437 37.437 0 0 1 3.243 2.267c1.916 1.5 3.847 3.362 4.563 5.085l1.847-.767c-.934-2.248-3.252-4.386-5.175-5.893a39.44 39.44 0 0 0-3.655-2.534l-.063-.037-.017-.01-.005-.003-.001-.001L29 13.5Zm7.577 8.384c.573 1.381.6 3.419.433 5.243a26.929 26.929 0 0 1-.471 3.091l-.01.043-.002.01v.002l.973.227.974.228v-.002l.002-.004.003-.016a14.316 14.316 0 0 0 .055-.254 28.901 28.901 0 0 0 .467-3.143c.17-1.865.197-4.327-.577-6.192l-1.847.767Zm.369 9.448 1.5 1 1.109-1.664-1.5-1-1.11 1.665Zm1.347-.539-7.5 7.5 1.414 1.415 7.5-7.5-1.414-1.415Zm-6.086 7.5-2-2-1.414 1.415 2 2 1.414-1.415ZM29.5 37.001l-.168-.986h-.001a.24.24 0 0 0-.008.001l-.032.006-.134.02a27.858 27.858 0 0 1-2.236.24c-1.404.093-3.008.08-4.148-.243l-.546 1.923c1.49.423 3.386.41 4.825.316a29.956 29.956 0 0 0 2.6-.289l.011-.002h.005L29.5 37Zm-6.727-.962c-1.03-.293-2.075-.957-3.088-1.859-1.007-.896-1.933-1.983-2.726-3.05a32.29 32.29 0 0 1-2.525-4l-.032-.062-.007-.015a.028.028 0 0 1-.002-.003l-.893.45a217.388 217.388 0 0 0-.892.452v.001l.004.006.01.02a10.09 10.09 0 0 0 .184.348 34.294 34.294 0 0 0 2.548 3.997c.843 1.133 1.86 2.334 3.001 3.35 1.136 1.01 2.444 1.883 3.872 2.288l.546-1.924ZM14.5 27.5v-6h-2v6h2Zm-1.678-5.265 6.5 6 1.357-1.47-6.5-6-1.357 1.47Zm26.971 26.473 13.5 13.5 1.414-1.415-13.5-13.5-1.414 1.415ZM54 61.5l-.28.96h.002l.004.001.016.005.053.015.193.051a17.919 17.919 0 0 0 2.908.5c.858.073 1.827.08 2.745-.086.91-.165 1.861-.52 2.574-1.247l-1.43-1.4c-.314.322-.814.555-1.502.68-.68.123-1.458.125-2.219.06a15.928 15.928 0 0 1-2.735-.486l-.039-.01-.008-.003h-.001l-.28.96Zm8.215.2c.618-.632.967-1.454 1.168-2.242.204-.796.277-1.635.291-2.378a16.56 16.56 0 0 0-.185-2.729l-.002-.013v-.006h-.001l-.986.168-.986.168v-.001l.002.007a9.268 9.268 0 0 1 .025.167 14.589 14.589 0 0 1 .134 2.202c-.012.653-.077 1.324-.23 1.919-.153.602-.379 1.052-.66 1.338l1.43 1.4Zm.992-7.908-14.5-14.5-1.414 1.415 14.5 14.5 1.414-1.415ZM47.271 39.316l-7.5 8 1.459 1.368 7.5-8-1.46-1.367ZM21.207 56.209l18-18-1.414-1.415-18 18 1.414 1.415Zm3.5 3.5 18-18-1.414-1.415-18 18 1.414 1.415Z" fill="url(#a)"/><defs><linearGradient id="a" x1="13.5" y1="20.56" x2="63.591" y2="63.005" gradientUnits="userSpaceOnUse"><stop stop-color="#1E74EC"/><stop offset="1" stop-color="#002984"/></linearGradient></defs></svg>