<svg width="80" height="80" fill="none" xmlns="http://www.w3.org/2000/svg"><path d="M9 50a1 1 0 1 0 0 2v-2Zm7 2a1 1 0 1 0 0-2v2Zm16-2a1 1 0 1 0 0 2v-2Zm7 2a1 1 0 1 0 0-2v2Zm16-2a1 1 0 1 0 0 2v-2Zm7 2a1 1 0 1 0 0-2v2ZM32 10a1 1 0 1 0 0 2v-2Zm7 2a1 1 0 1 0 0-2v2ZM18 68a1 1 0 1 0 0 2v-2Zm7 2a1 1 0 1 0 0-2v2Zm16-2a1 1 0 1 0 0 2v-2Zm7 2a1 1 0 1 0 0-2v2Zm16-2a1 1 0 1 0 0 2v-2Zm7 2a1 1 0 1 0 0-2v2ZM41 28a1 1 0 1 0 0 2v-2Zm7 2a1 1 0 1 0 0-2v2Zm-7 4a1 1 0 1 0-2 0h2Zm-24 5v-1a1 1 0 0 0-1 1h1Zm46 0h1a1 1 0 0 0-1-1v1Zm-47 7a1 1 0 1 0 2 0h-2Zm23 0a1 1 0 1 0 2 0h-2Zm23 0a1 1 0 1 0 2 0h-2Zm-52 1h14v-2H10v2Zm14 0v26h2V47h-2Zm0 26H10v2h14v-2Zm-14 0V47H8v26h2Zm0 0H8a2 2 0 0 0 2 2v-2Zm14 0v2a2 2 0 0 0 2-2h-2Zm0-26h2a2 2 0 0 0-2-2v2Zm-14-2a2 2 0 0 0-2 2h2v-2Zm23 2h14v-2H33v2Zm14 0v26h2V47h-2Zm0 26H33v2h14v-2Zm-14 0V47h-2v26h2Zm0 0h-2a2 2 0 0 0 2 2v-2Zm14 0v2a2 2 0 0 0 2-2h-2Zm0-26h2a2 2 0 0 0-2-2v2Zm-14-2a2 2 0 0 0-2 2h2v-2Zm23 2h14v-2H56v2Zm14 0v26h2V47h-2Zm0 26H56v2h14v-2Zm-14 0V47h-2v26h2Zm0 0h-2a2 2 0 0 0 2 2v-2Zm14 0v2a2 2 0 0 0 2-2h-2Zm0-26h2a2 2 0 0 0-2-2v2Zm-14-2a2 2 0 0 0-2 2h2v-2ZM33 7h14V5H33v2Zm14 0v26h2V7h-2Zm0 26H33v2h14v-2Zm-14 0V7h-2v26h2Zm0 0h-2a2 2 0 0 0 2 2v-2Zm14 0v2a2 2 0 0 0 2-2h-2Zm0-26h2a2 2 0 0 0-2-2v2ZM33 5a2 2 0 0 0-2 2h2V5ZM9 52h7v-2H9v2Zm23 0h7v-2h-7v2Zm23 0h7v-2h-7v2ZM32 12h7v-2h-7v2ZM18 70h7v-2h-7v2Zm23 0h7v-2h-7v2Zm23 0h7v-2h-7v2ZM41 30h7v-2h-7v2Zm-2 4v5h2v-5h-2Zm-22 6h46v-2H17v2Zm-1-1v7h2v-7h-2Zm23 0v7h2v-7h-2Zm23 0v7h2v-7h-2Z" fill="url(#a)"/><defs><linearGradient id="a" x1="9" y1="15.563" x2="75.786" y2="67.893" gradientUnits="userSpaceOnUse"><stop stop-color="#1E74EC"/><stop offset="1" stop-color="#002984"/></linearGradient></defs></svg>