<svg width="129" height="128" fill="none" xmlns="http://www.w3.org/2000/svg"><mask id="b" fill="#fff"><path d="M33.25 78.697c0-.345.28-.625.625-.625h11.57c.346 0 .626.28.626.625v19.678c0 .345-.28.625-.625.625H33.875a.625.625 0 0 1-.625-.625V78.697ZM49.276 67.428c0-.345.28-.625.625-.625h11.57c.345 0 .625.28.625.625v30.947c0 .345-.28.625-.625.625h-11.57a.625.625 0 0 1-.625-.625V67.428ZM66.904 56.16c0-.346.28-.626.625-.626h11.57c.346 0 .626.28.626.625v42.216c0 .345-.28.625-.625.625H67.529a.625.625 0 0 1-.625-.625V56.16ZM82.93 46.5c0-.345.28-.625.625-.625h11.57c.345 0 .625.28.625.625v51.875c0 .345-.28.625-.625.625h-11.57a.625.625 0 0 1-.625-.625V46.5Z"/></mask><path d="M33.875 80.072h11.57v-4h-11.57v4Zm10.196-1.375v19.678h4V78.697h-4ZM45.446 97H33.875v4h11.57v-4ZM35.25 98.375V78.697h-4v19.678h4ZM49.9 68.803h11.571v-4h-11.57v4Zm10.196-1.375v30.947h4V67.428h-4ZM61.471 97h-11.57v4h11.57v-4Zm-10.195 1.375V67.428h-4v30.947h4Zm16.253-40.84h11.57v-4H67.53v4Zm10.196-1.376v42.216h4V56.16h-4ZM79.1 97H67.529v4h11.57v-4Zm-10.196 1.375V56.16h-4v42.216h4Zm14.65-50.5h11.571v-4h-11.57v4ZM93.75 46.5v51.875h4V46.5h-4ZM95.125 97h-11.57v4h11.57v-4ZM84.93 98.375V46.5h-4v51.875h4ZM83.555 97c.759 0 1.375.616 1.375 1.375h-4A2.625 2.625 0 0 0 83.555 101v-4Zm10.195 1.375c0-.76.616-1.375 1.375-1.375v4a2.625 2.625 0 0 0 2.625-2.625h-4Zm1.375-50.5c-.76 0-1.375-.616-1.375-1.375h4a2.625 2.625 0 0 0-2.625-2.625v4Zm-11.57-4A2.625 2.625 0 0 0 80.93 46.5h4c0 .76-.616 1.375-1.375 1.375v-4ZM67.529 97c.76 0 1.375.616 1.375 1.375h-4A2.625 2.625 0 0 0 67.529 101v-4Zm10.196 1.375c0-.76.615-1.375 1.375-1.375v4a2.625 2.625 0 0 0 2.625-2.625h-4Zm1.375-40.84c-.76 0-1.375-.616-1.375-1.376h4a2.625 2.625 0 0 0-2.625-2.625v4Zm-11.571-4a2.625 2.625 0 0 0-2.625 2.624h4c0 .76-.616 1.375-1.375 1.375v-4ZM49.9 97c.76 0 1.375.616 1.375 1.375h-4A2.625 2.625 0 0 0 49.9 101v-4Zm10.195 1.375c0-.76.616-1.375 1.375-1.375v4a2.625 2.625 0 0 0 2.625-2.625h-4Zm1.375-29.572c-.76 0-1.375-.615-1.375-1.375h4a2.625 2.625 0 0 0-2.625-2.625v4Zm-11.57-4a2.625 2.625 0 0 0-2.625 2.625h4c0 .76-.616 1.375-1.375 1.375v-4ZM33.875 97c.76 0 1.375.616 1.375 1.375h-4A2.625 2.625 0 0 0 33.875 101v-4Zm10.196 1.375c0-.76.615-1.375 1.375-1.375v4a2.625 2.625 0 0 0 2.625-2.625h-4Zm1.375-18.303c-.76 0-1.375-.615-1.375-1.375h4a2.625 2.625 0 0 0-2.625-2.625v4Zm-11.571-4a2.625 2.625 0 0 0-2.625 2.625h4c0 .76-.616 1.375-1.375 1.375v-4Z" fill="url(#a)" mask="url(#b)"/><path d="m33.875 63.375 52.5-31.977m0 0-.808 6.396m.808-6.396L79.914 29" stroke="url(#c)" stroke-width="2" stroke-linecap="round" stroke-linejoin="round"/><defs><linearGradient id="a" x1="33.25" y1="53.346" x2="86.983" y2="107.672" gradientUnits="userSpaceOnUse"><stop stop-color="#1E74EC"/><stop offset="1" stop-color="#002984"/></linearGradient><linearGradient id="c" x1="33.875" y1="33.834" x2="67.398" y2="77.834" gradientUnits="userSpaceOnUse"><stop stop-color="#1E74EC"/><stop offset="1" stop-color="#002984"/></linearGradient></defs></svg>