<svg width="80" height="80" fill="none" xmlns="http://www.w3.org/2000/svg"><path fill-rule="evenodd" clip-rule="evenodd" d="M40.982 14.725A6.402 6.402 0 0 0 40 2a6.4 6.4 0 0 0-.982 12.725V19.6c0 .063.006.125.018.184L21.96 28.322a.982.982 0 0 0-.543.878v9.418h-4.693A6.402 6.402 0 0 0 4 39.6a6.4 6.4 0 0 0 12.725.982h4.693V50c0 .359.196.69.512.862l17.11 9.332a.987.987 0 0 0-.022.206v4.875A6.402 6.402 0 0 0 40 78a6.4 6.4 0 0 0 .982-12.725V60.4c0-.07-.007-.14-.022-.206l17.11-9.332a.982.982 0 0 0 .512-.862v-9.418h4.693A6.402 6.402 0 0 0 76 39.6a6.4 6.4 0 0 0-12.725-.982h-4.693V29.2a.982.982 0 0 0-.543-.878l-17.074-8.537a.989.989 0 0 0 .017-.185v-4.875ZM44.437 8.4a4.436 4.436 0 1 1-8.873 0 4.436 4.436 0 0 1 8.873 0ZM23.382 49.417V30.788l15.636 7.818v19.34l-15.636-8.53Zm17.6 8.529 15.636-8.53V30.789l-15.636 7.818v19.34ZM40 36.902 55.404 29.2 40 21.497 24.595 29.2 40 36.902Zm-29.6 7.134a4.436 4.436 0 1 0 0-8.873 4.436 4.436 0 0 0 0 8.873Zm59.2 0a4.436 4.436 0 1 0 0-8.873 4.436 4.436 0 0 0 0 8.873ZM44.437 71.6a4.436 4.436 0 1 1-8.873 0 4.436 4.436 0 0 1 8.873 0Z" fill="url(#a)"/><defs><linearGradient id="a" x1="4" y1="12.688" x2="79.278" y2="73.974" gradientUnits="userSpaceOnUse"><stop stop-color="#1E74EC"/><stop offset="1" stop-color="#002984"/></linearGradient></defs></svg>