<svg width="32" height="32" fill="none" xmlns="http://www.w3.org/2000/svg"><path d="M29.631 0H2.363C1.056 0 0 1.03 0 2.306v27.381C0 30.962 1.056 32 2.362 32h27.27C30.936 32 32 30.962 32 29.693V2.306C32 1.03 30.937 0 29.631 0ZM9.494 27.268h-4.75V11.993h4.75v15.275ZM7.119 9.912a2.751 2.751 0 0 1-2.756-2.75 2.751 2.751 0 0 1 2.756-2.75 2.75 2.75 0 0 1 0 5.5Zm20.15 17.356h-4.744v-7.425c0-1.768-.031-4.05-2.469-4.05-2.469 0-2.844 1.931-2.844 3.925v7.55h-4.737V11.993h4.55v2.088h.063c.63-1.2 2.18-2.469 4.487-2.469 4.806 0 5.694 3.162 5.694 7.275v8.381Z" fill="#fff"/></svg>