<svg width="137" height="31" fill="none" xmlns="http://www.w3.org/2000/svg"><path fill-rule="evenodd" clip-rule="evenodd" d="M80.95.56C73.126 1.238 66.59 6 64.872 12.273c-.947 3.46-.412 7.196 1.474 10.292.306.503.623.991.704 1.086.13.154.514-.108 3.424-2.338a3468.97 3468.97 0 0 1 4.35-3.328l1.07-.816-.487-.78c-1.428-2.284-1.677-4.691-.736-7.117.566-1.459 1.484-2.633 2.973-3.803C81.606 2.355 87.688 2.138 92 4.957c.698.456 1.63 1.25 2.006 1.708.056.067 1.982-1.421 1.982-1.532 0-.173-1.768-1.404-2.964-2.065C90.59 1.725 88.106.952 85.219.64 83.968.504 82.016.468 80.951.56ZM51.607.703c-4.7.239-9.886.923-13.368 1.765l-1.123.272-.032 4.467-.031 4.467 1.062-.71c2.255-1.509 4.88-2.754 7.863-3.728.939-.307 1.77-.558 1.849-.558.108 0 .142 2.886.142 11.924v11.925h7.397V5.177l.273-.095c.663-.232 5.204-.674 9.723-.948 1.396-.084 2.561-.172 2.59-.196.028-.023.012-.689-.036-1.48l-.088-1.436-1.835-.12C61.184.589 55.429.509 51.606.703Zm-21.04.152c-.2.019-.963.084-1.697.144-9.784.806-17.556 4.488-22.406 10.618C2.846 16.19.793 22.054.589 28.407l-.068 2.12H10.586l.084-1.92c.133-3.049.435-5.644.935-8.034l.13-.623h14.891v10.578h7.519V.79l-1.608.015c-.883.008-1.77.03-1.97.049Zm73.94 14.729.03 14.793 1.213.125c.667.07 3.068.153 5.335.186 4.429.065 6.629-.04 9.7-.466 6.984-.968 11.847-3.278 14.204-6.745.468-.69 1.206-2.296 1.276-2.777l.043-.298-1.542-.171c-1.434-.16-5.26-.487-7.378-.631l-.917-.063-.81 1.329c-.97 1.59-2.007 2.803-3.377 3.95-2.701 2.263-5.642 3.41-9.41 3.672l-1 .07V14.972c0-7.471-.018-13.584-.04-13.584-.022 0-.624-.067-1.337-.15-1.539-.177-4.894-.448-5.555-.448h-.466l.031 14.793Zm-77.88-5.513v6.785h-6.973c-5.8 0-6.972-.023-6.972-.136 0-.074.195-.621.435-1.216 2.477-6.158 6.636-10.153 12.419-11.93.5-.153.95-.281 1-.284.05-.003.09 3.049.09 6.78Zm68.016.41a579.764 579.764 0 0 0-4.316 3.317l-.386.314.592.986c1.573 2.62 1.55 5.604-.063 8.244-.742 1.216-2.213 2.587-3.64 3.395-2.034 1.151-5.028 1.76-7.39 1.501-2.76-.302-5.18-1.332-6.942-2.953-.386-.355-.757-.645-.826-.645-.068 0-.528.335-1.023.744l-.899.745.235.215c.13.118.645.495 1.145.838 2.6 1.784 5.522 2.901 8.791 3.362 2.031.286 5.327.219 7.217-.148 4.982-.966 9.242-3.567 11.8-7.203 2.642-3.756 3.201-8.334 1.53-12.54-.368-.928-1.488-2.897-1.748-3.075-.108-.074-1.206.707-4.077 2.902Z" fill="#989AA9"/></svg>