<svg width="115" height="56" fill="none" xmlns="http://www.w3.org/2000/svg"><path fill-rule="evenodd" clip-rule="evenodd" d="M56.774.1c-.234.144-.605.193-.825.11-.22-.085-.58-.041-.8.097-.222.138-.541.262-.711.276-.17.015-.553.122-.85.24-1.148.454-1.631.625-1.84.65-.119.015-.378.189-.576.386-.469.469-.107 1.03.664 1.03.656 0 1.307 1.243 1.03 1.964-.231.602 2.115 1.136 4.723 1.075 1.157-.027 1.617-.098 1.022-.157a29.479 29.479 0 0 1-2.164-.316l-1.082-.207 1.546-.214c1.794-.248 3.321-.046 3.043.403-.106.172-.023.255.183.187.737-.246.331-.731-.82-.983-1.261-.275-4.509-.111-5.471.277-.426.171-.527.133-.36-.137.128-.206.075-.564-.118-.796-.678-.817 3.764-1.388 6.272-.806 1.306.303 1.801.649 1.224.856-.293.105-.294.264-.003.73.204.327.495.595.645.595.15 0 .122-.181-.062-.402-.54-.651-.065-1.694.932-2.041 1.236-.43 1.05-1.3-.367-1.716-.594-.175-1.253-.43-1.466-.568-.212-.138-.532-.16-.709-.05-.177.109-.519.036-.76-.164-.24-.199-.587-.268-.772-.154-.185.114-.508.065-.72-.11A.713.713 0 0 0 56.775.1Zm-.685.703c.306.305.44.291.663-.068.154-.249.388-.344.52-.213.131.132.052.356-.178.497-.23.142-.327.403-.218.58.11.177.057.41-.117.517-.175.108-.436-.126-.582-.519-.145-.393-.384-.67-.53-.614-.147.055-.316-.05-.377-.232-.15-.45.347-.42.82.052Zm2.878.08c0 .16-.15.343-.333.403-.182.061-.332-.12-.332-.403 0-.284.15-.465.332-.404.183.06.333.242.333.404Zm-4.375.308c0 .255-.156.464-.346.464-.226 0-.2.18.077.513.363.44.358.491-.04.36-.431-.144-.653-1.039-.388-1.568.205-.41.697-.247.697.231Zm5.874.199c0 .174-.171.259-.38.19-.21-.07-.622.161-.917.514-.442.528-.539.552-.548.139-.005-.277.303-.713.686-.97.714-.479 1.159-.43 1.159.127Zm-2.365.429c-.096.249-.299.453-.45.453-.318 0-.373-.726-.079-1.02.33-.33.715.083.529.567Zm-4.745-.164c0 .17-.209.308-.464.308s-.464-.139-.464-.308c0-.17.209-.31.464-.31s.464.14.464.31Zm2.4.37c-.153.462-.69.33-.8-.199-.069-.33.055-.419.4-.287.274.106.455.324.4.485Zm6.642-.18c.662.233.715.736.077.736-.255 0-.463-.14-.463-.309 0-.17-.27-.309-.6-.309-.33 0-.686.14-.791.31-.233.375-.773.408-.773.046 0-.35 1.31-.964 1.7-.797.17.073.553.218.85.323Zm-10.279.427c0 .17-.13.309-.29.309-.16 0-.378-.14-.483-.309-.105-.17.026-.309.291-.309.265 0 .482.14.482.31Zm1.095.33c.333.537-.046.651-.47.14-.244-.293-.268-.47-.063-.47.181 0 .42.148.533.33Zm8.489-.054c0 .151-.21.356-.464.453-.471.181-.633-.148-.258-.523.295-.295.722-.254.722.07ZM58.92 3.816c0 .17.148.309.328.309.18 0 .241-.14.136-.309-.105-.17-.252-.309-.327-.309-.076 0-.137.14-.137.309Zm-5.99 2.41c-.099.159-.596.372-1.105.474-.65.13-.983.414-1.119.954-.106.422-.391.933-.634 1.133-.262.217-.36.614-.245.98.18.566.09.599-1.152.425-1.74-.244-2.675.441-2.588 1.898.072 1.2.2 1.348 1.22 1.407.436.025.789.115.783.2-.027.442-.898 1.235-1.356 1.235-.289 0-.44.136-.338.302.103.167.047.565-.126.886-.171.321-.212.684-.091.806.121.123.221.524.221.89 0 .369.173.632.386.59.213-.043.387.131.387.386s.226.463.501.463c.434 0 .444-.074.078-.54-.233-.298-.519-.612-.633-.7-.474-.359-.419-2.912.057-2.618.171.106.554-.232.85-.752.296-.519.675-.9.842-.845.364.119 1.087-1.184 1.087-1.958 0-1.325-2.183-.764-2.779.715-.253.626-.356.51-.436-.481-.017-.212-.143-.469-.281-.57-.538-.395 1.196-1.105 2.358-.966 1.52.182 1.892 1.012 1.265 2.83-.246.712-.367 1.424-.269 1.582.098.16-.174.289-.605.289-.889 0-1.902 1.258-1.615 2.004.262.682 1.085.57 2.231-.303.555-.423 1.067-.666 1.138-.54.07.125.087.057.036-.153-.128-.527.886-2.239 1.327-2.241.198-.001.418-.175.489-.385.09-.273.29-.222.688.176.353.352.813.497 1.24.39.499-.125.768.013 1.01.518.695 1.45.704 1.769.05 1.769-.346 0-.542-.14-.437-.309.105-.17.052-.309-.118-.309-.664 0-.657.637.01.883.666.246.643.281-.406.627-1.208.398-2.278 1.372-2 1.82.095.155-.224.661-.709 1.126-.518.496-.963.714-1.078.529-.133-.215-.492-.213-1.122.007-1.653.575-2.03 2.419-.493 2.419.855 0 1.355.858.655 1.126-.642.246-2.068-.154-1.843-.517.101-.165.054-.3-.106-.3-.495 0-.653-1.663-.205-2.162.593-.66 1.117-2.156.887-2.529-.279-.45-.76.403-.57 1.01.083.27-.129.743-.472 1.052-1.88 1.7.835 5.24 2.748 3.581.76-.658.32-1.57-.758-1.57-.441 0-.757-.18-.757-.43 0-.528.758-.85 1.411-.6.302.116.901-.208 1.592-.859.61-.574 1.031-.823.936-.553-.228.65.183 1.272.896 1.354 1.332.154 2.584.57 2.584.858 0 .183.446.239 1.082.136.972-.158 1.082-.104 1.082.529 0 .387.243.917.541 1.176.59.515 3.396.933 3.637.543.083-.133.688-.17 1.345-.082 1.002.134 1.275.044 1.7-.561.63-.9.637-1.336.027-1.945-.38-.378-.406-.613-.128-1.131.192-.36.266-.988.163-1.397-.189-.752.231-1.027.617-.405.118.192.445-.19.754-.88.3-.67.806-1.323 1.123-1.451.553-.225.552-.245-.04-.473-.362-.14-1.037-.068-1.624.172-1.118.456-1.035.594-1.142-1.892l-.055-1.254 1.316.473c1.666.598 1.955.313.924-.91-.446-.53-.811-1.259-.811-1.62 0-.496-.087-.568-.359-.297-.271.272-.158.66.469 1.606.454.686.72 1.242.59 1.235-.13-.007-1.002-.423-1.937-.926-.935-.503-1.874-.914-2.086-.914-.213 0-.387-.275-.387-.61 0-.523.11-.568.771-.317.424.16 1.12.52 1.546.8.472.309.775.372.775.162 0-.189-.115-.344-.255-.344s-.245-.52-.232-1.158c.016-.81.232-1.327.719-1.72 1.425-1.154.417-3.302-1.546-3.293-.553.003-1.209.134-1.458.291-.294.186-.611.157-.9-.082-.342-.281-.477-.282-.57-.004-.078.229-.504.301-1.152.196-1.697-.275-3.088 1.673-1.899 2.659.362.3.222.56-.828 1.539-.831.775-1.462 1.125-1.844 1.025-.32-.083-.511-.333-.426-.555.085-.222-.08-.45-.369-.507-.359-.071-.41-.175-.163-.331.2-.125.573-.016.831.241.258.258.548.34.645.184.097-.157.014-.339-.184-.405-.258-.085-.27-.283-.042-.689.26-.464.132-.732-.707-1.467-.607-.533-.956-1.082-.855-1.345.115-.298-.036-.446-.454-.446-.345 0-.833-.079-1.084-.175-.252-.097-.539-.045-.637.114Zm1.523 1.144c-.055.496.05.665.343.553.281-.108.36-.003.239.313-.136.354-.027.435.425.317.335-.088.694-.02.799.149.295.477-.124 1.27-.58 1.095-.583-.224-.898.45-.457.98.413.497.075.592-.597.168-.27-.17-.362-.544-.247-1 .166-.655.144-.673-.222-.185-.515.688-1.035.692-1.166.01-.089-.46-.196-.43-.796.212-.566.607-.693.648-.693.22 0-.29.275-.76.612-1.048.412-.353.498-.594.264-.738-.408-.252-.12-1.203.364-1.203.183 0 .31.173.282.386-.095.737.025 1.157.333 1.157.493 0 .357-1.544-.153-1.74-.714-.273-.264-.665.578-.504.569.109.731.316.672.858Zm11.887-.466c.797.796.789 1.74-.02 2.172-.476.254-.753.245-1.09-.034-.395-.327-.39-.443.042-.92.457-.503.444-.56-.162-.753-.402-.127-.958-.01-1.44.306-1.116.73-1.363.247-.327-.643 1.055-.907 2.17-.955 2.997-.128Zm-4.595.282c.402.325.633.689.513.809-.12.12-.45-.015-.733-.298-.284-.283-.73-.474-.994-.423-.662.129-.852.865-.223.865.322 0 .474.201.408.54-.14.73-.853.683-1.368-.091-.358-.54-.35-.732.058-1.312.586-.838 1.379-.868 2.34-.09Zm.885-.282a.31.31 0 0 1-.618 0 .31.31 0 0 1 .618 0Zm-10.976.62c-.309.34-.629.552-.71.47-.208-.208.563-1.09.952-1.09.175 0 .066.279-.242.62Zm9.597.327c.333.537-.046.651-.47.14-.244-.292-.267-.47-.062-.47.18 0 .42.149.532.33Zm3.546.13c-.21.253-.508.382-.662.288-.394-.244-.017-.748.56-.748.394 0 .412.086.102.46Zm-12.996.39c-.017.384-1.563 1.388-1.79 1.161-.116-.116.118-.477.52-.802.755-.612 1.286-.762 1.27-.36Zm12.797.717c.594.467.814.923.814 1.688 0 .805-.107 1.008-.464.871-.254-.098-.463-.433-.463-.745 0-.591-1.086-1.528-1.771-1.528-.218 0-.7.347-1.07.772-.6.69-1.487 1.049-1.487.602 0-.424.954-1.952 1.307-2.094.913-.367 2.372-.165 3.134.434Zm-13.466 1.676c-.022.594-.14 1.08-.263 1.08-.317 0-.594-1.211-.396-1.728.313-.815.7-.434.66.648Zm12.57 4.432c.491.094.54.032.25-.316-.46-.554-.138-1.048.842-1.293.425-.106.593-.111.373-.012-.298.136-.311.287-.052.599.236.285.249.59.039.966-.202.36-.203.742-.003 1.116.523.978-.889 2.035-1.468 1.1-.121-.196.045-.555.368-.797.558-.418.55-.435-.184-.34-.762.101-.775.15-.862 3.304-.069 2.494.018 3.365.394 3.937.533.814 1.704 1 1.704.272a.465.465 0 0 0-.464-.463.476.476 0 0 1-.463-.485c0-.806 1.373-.415 1.492.425.224 1.576-1.607 2.187-2.637.879l-.571-.726-.548.726c-.301.398-.843.725-1.204.725-.89 0-1.788-.867-1.788-1.728s-.5-1.224-1.056-.764c-.407.338-1.417.153-1.417-.258 0-.445.768-.955 1.435-.955.382 0 .902.296 1.156.658.259.37.656.583.907.487.245-.094.59-.026.768.151.429.428.12 1.174-.486 1.174-.265 0-.385.096-.267.215.456.456 1.146.32 1.59-.31.374-.535.462-1.879.462-7.05 0-4.837.094-6.422.386-6.52.282-.095.428.587.541 2.518.136 2.324.23 2.663.763 2.765Zm-9.814-4.134c.697.175.762.263.357.489-.291.163-.92.157-1.541-.015-.93-.257-.985-.241-.48.141.387.292.504.637.366 1.071-.112.352-.298.65-.414.664a14.3 14.3 0 0 0-.752.127c-.774.148-.68-.631.271-2.253.641-1.093.868-1.285 1.078-.911.146.26.648.57 1.115.687Zm5.958-.357c-.002.202-.489.698-1.082 1.102-.594.404-1.08.855-1.08 1.003 0 .148-.14.27-.31.27-.617 0-.284-.772.824-1.905 1.08-1.105 1.652-1.269 1.648-.47Zm4.275.006c.07.358-.048.457-.386.327-.572-.219-.669-1.159-.1-.97.212.071.43.36.486.643Zm-14.61 1.691c-.206.646-1.102 1.19-1.102.668 0-.165.14-.3.31-.3.17 0 .309-.375.309-.833 0-.606.093-.741.34-.494.187.186.25.618.142.96Zm12.192-.558c0 .397-.207.618-.577.618-.579 0-2.206 1.397-2.206 1.894 0 .147-.213.267-.474.267-.396 0-.414-.115-.104-.694.327-.614.314-.65-.11-.3-.265.219-.65.803-.856 1.299-.327.79-.288 1.021.318 1.87.52.73.754.868.946.557.34-.548 1.184.524 1.198 1.521.01.676-.018.684-.758.2-.422-.277-1.064-.982-1.426-1.568-.363-.585-.728-.996-.812-.912-.225.225 1.04 1.905 2.048 2.723.494.4.956 1.144 1.063 1.711.228 1.213.15 1.23-.882.2-.547-.546-1.011-.749-1.454-.633-.954.249-2.104-.73-1.668-1.42.255-.404.212-.65-.184-1.044-.483-.483-.467-.557.256-1.124.436-.343.7-.799.604-1.047-.195-.507.956-2.427 2.026-3.38 1.616-1.44 3.052-1.787 3.052-.738Zm-12.984.08c0 .214-.279.563-.619.775-.695.434-.764.303-.298-.566.36-.673.917-.8.917-.209Zm5.873 1c0 .595-.139 1.082-.309 1.082-.343 0-.429-1.63-.103-1.956.356-.355.412-.236.412.875Zm1.183-.019c.072.606-.02.82-.309.723-.225-.075-.416-.51-.425-.965-.018-1.08.603-.875.734.242Zm1.067.073c.178.93-.008 1.645-.428 1.645-.152 0-.276-.208-.276-.463s.167-.463.371-.463c.288 0 .288-.083 0-.37-.425-.425-.511-1.606-.099-1.351.15.092.344.543.432 1.002Zm-3.177-.516a.31.31 0 0 1-.618 0 .31.31 0 0 1 .618 0Zm7.728 4.284c0 2.187.08 4.445.179 5.018l.178 1.042-.797-.867c-.77-.837-.796-1-.796-4.837 0-3.872.079-4.21 1.005-4.307.127-.013.231 1.765.231 3.951Zm2.783-3.667c0 .17-.131.31-.291.31-.16 0-.377-.14-.482-.31-.105-.17.026-.309.29-.309.266 0 .483.14.483.31ZM51.5 14.36c0 .112-.601.868-1.336 1.678-.993 1.096-1.478 1.42-1.89 1.261-.502-.192-.511-.277-.093-.903.261-.392.779-.691 1.194-.691.624 0 .748-.173.83-1.15.086-1.052.145-1.117.695-.774.33.206.6.466.6.579Zm1.287-.076c-.49.303-.046 1.524.814 2.237.58.481.61.471.57-.192-.024-.385-.2-.64-.39-.567-.473.181-.844-.88-.404-1.152.194-.12.227-.295.073-.39-.153-.095-.452-.066-.663.064Zm6.813.61c-.177.11-.368.403-.424.652-.056.25-.283.647-.504.884-.342.367-.468.345-.84-.147-.577-.763-.423-1.172.493-1.303.412-.058.877-.333 1.035-.61.22-.386.318-.407.424-.088.076.227-.007.503-.184.612Zm-7.72 1.583c0 .594.064.838.142.54a2.528 2.528 0 0 0 0-1.08c-.078-.298-.141-.054-.141.54Zm7.967.062c0 .718-.093.895-.34.648-.187-.186-.247-.631-.134-.988.295-.929.474-.801.474.34Zm-7.42-.062c0 .17.148.309.328.309.18 0 .241-.14.136-.31-.105-.169-.252-.308-.327-.308-.075 0-.137.14-.137.309Zm14.777 1.562c-.384.519-.75.791-.812.604-.082-.245-.226-.246-.52-.002-.294.243-.465.241-.619-.008-.25-.404-.264-.389.931-1.022 1.465-.777 1.805-.633 1.02.428Zm-16.322-.327a.31.31 0 0 0 .618 0 .31.31 0 0 0-.618 0Zm1.082.618c.105.17.252.308.327.308.075 0 .136-.139.136-.308 0-.17-.147-.31-.327-.31-.18 0-.242.14-.136.31Zm3.45.175c.103.266.03.641-.163.833-.505.505-.435.75.268.934.665.174.784.714.317 1.452-.232.367-.37.382-.675.077-.211-.211-.72-.384-1.131-.384-.605 0-.711-.118-.557-.617l.382-1.235c.12-.388.047-.618-.193-.618-.304 0-.303-.096.002-.463.503-.606 1.515-.593 1.75.02Zm9.396.15c.865.865.753 3.162-.164 3.336-.336.064-.784.343-.995.62-.347.456-.385.457-.394.012-.005-.27.268-.744.608-1.051.72-.65.836-2.007.173-2.007-.572 0-.893-.523-.673-1.096.238-.62.697-.56 1.445.186Zm-13.465.292c.105.17.253.309.328.309.075 0 .136-.14.136-.309 0-.17-.147-.309-.327-.309-.18 0-.242.14-.137.31Zm-.772.309c0 .17.147.309.327.309.18 0 .241-.14.136-.31-.105-.169-.252-.308-.327-.308-.075 0-.136.14-.136.309Zm13.602.9c0 .535-.376 1.261-.652 1.261-.32 0-.374-1.033-.07-1.338.299-.298.722-.252.722.078Zm.154 3.423c.105.17.052.309-.118.309-.17 0-.395-.14-.5-.31-.105-.169-.052-.308.118-.308.17 0 .395.139.5.309ZM48.377 32.3a99.151 99.151 0 0 1-.84 2.161c-.059.128 1.783.232 4.093.232s4.199.105 4.199.234-1.334 2.943-2.965 6.253c-1.63 3.31-3.386 6.922-3.903 8.025a214.804 214.804 0 0 1-2.14 4.4L45.621 56h15.396l.435-1.775.435-1.775 2.303-.037 2.304-.035.494-1.817.494-1.817 1.979.11c1.089.06 2.033.16 2.099.222.066.062.284.846.486 1.743l.367 1.63 2.528.09c1.39.05 2.528.006 2.528-.096 0-.204-1.624-6.351-3.097-11.727-.512-1.868-1.073-4.022-1.246-4.786-.173-.764-.414-1.547-.536-1.739-.122-.192-1.495-.448-3.05-.57l-2.83-.222-.535 1.806c-.294.993-.64 2.222-.766 2.732-.127.51-.925 3.427-1.774 6.484s-1.633 5.94-1.744 6.407l-.2.85h-3.884c-2.137 0-3.833-.104-3.77-.232l1.224-2.547c.612-1.274 2.868-5.902 5.014-10.284 2.145-4.382 3.9-8.03 3.9-8.105 0-.076-3.39-.138-7.532-.138h-7.532l-.734 1.93Zm62.946 1.21c-.914.718-1.005 1.807-.211 2.524.76.688 1.774.645 2.526-.106.737-.736.773-1.186.164-2.054-.658-.938-1.576-1.073-2.479-.364Zm-102.947.377c-5.639 1.771-8.914 8.443-7.093 14.45.694 2.288 2.654 4.581 4.879 5.707 2.228 1.128 5.298 1.134 7.641.016.926-.442 1.892-.986 2.147-1.208 1.024-.893 2.782-3.054 2.778-3.416-.004-.35-3.979-3.216-4.112-2.964-.032.06-.336.66-.676 1.334-.699 1.386-2.346 2.634-3.477 2.634-1.33 0-2.73-.898-3.505-2.25-.618-1.077-.746-1.724-.746-3.77 0-2.06.126-2.692.76-3.798 1.939-3.38 5.313-3.334 7.299.1.303.523.494.435 2.318-1.075 1.094-.904 2.029-1.745 2.077-1.868.05-.123-.689-.934-1.64-1.803-2.543-2.32-5.578-3.054-8.65-2.089Zm31.673-.313c-.078.076-.071 2.513.014 5.415.085 2.903.074 5.277-.024 5.277s-1.319-2.363-2.714-5.25l-2.535-5.25-1.923.005c-1.058.002-2.237.088-2.62.19l-.695.186v18.836l.695-.187c.383-.102 1.517-.188 2.52-.19l1.825-.004-.175-5.404c-.096-2.972-.082-5.401.03-5.4.113.003 1.409 2.4 2.88 5.327L40 52.45l1.521.031c.837.018 1.966-.033 2.51-.112l.987-.145-.082-9.305-.082-9.305-2.332-.089c-1.283-.049-2.396-.026-2.473.05Zm73.413.369c.603.603.603.753.004 1.607-.652.93-1.905.906-2.339-.046-.712-1.56 1.114-2.78 2.335-1.561Zm-1.704-.122c-.297 1.183.063 2.34.44 1.412.118-.29.241-.272.501.077.275.371.326.28.255-.46-.057-.59-.284-.96-.63-1.026-.297-.057-.552-.058-.566-.003Zm-90.06.482-1.209.124.204 6.976c.111 3.837.203 8.065.203 9.396v2.42l1.314-.003c.723-.002 1.835-.09 2.473-.195l1.16-.191V34.076l-1.47.052c-.807.029-2.011.108-2.675.176Zm57.626 8.881c0 5.01-.035 9.213-.078 9.34-.042.128.998.273 2.312.322l2.388.09.085-5.493.084-5.494.663 1.39c5.322 11.155 4.563 10.177 7.916 10.185l1.778.004V34.694l-.85-.003c-.468-.001-1.602-.093-2.52-.203l-1.669-.2.223 5.53c.13 3.245.109 5.401-.053 5.22-.152-.17-1.368-2.706-2.703-5.635l-2.428-5.327h-5.148v9.11Zm33.387-8.8a.31.31 0 0 1-.619 0 .31.31 0 0 1 .619 0Zm-10.666.98c-2.817 1.07-4.675 3.19-5.615 6.408-1.31 4.49.997 9.931 5.176 12.203 3.435 1.867 7.933.93 10.281-2.141 3.744-4.897 1.885-13.024-3.615-15.808-1.795-.908-4.748-1.222-6.227-.662Zm4.756 4.698c1.137 1.007 1.876 2.914 1.884 4.86.01 2.591-.284 3.602-1.387 4.77-.794.842-1.236 1.057-2.168 1.057-.959 0-1.379-.218-2.32-1.206-1.241-1.303-1.609-2.51-1.579-5.182.047-4.177 3.071-6.512 5.57-4.3Zm-36.486 2.736.595 2.702H69.53c-1.169 0-1.354-.082-1.215-.54.129-.426 1.028-4.633 1.14-5.327.05-.316.282.538.86 3.165Z" fill="#989AA9"/></svg>